<svg xmlns:xlink="http://www.w3.org/1999/xlink" version="1.1" class="highcharts-root" style="font-family:&quot;lucida grande&quot;, &quot;lucida sans unicode&quot;, arial, helvetica, sans-serif;font-size:12px;" xmlns="http://www.w3.org/2000/svg" width="600" height="500"><desc>Created with Highcharts 5.0.6</desc><defs><clipPath id="highcharts-zrmuae6-85"><rect x="0" y="0" width="304" height="382" fill="none"></rect></clipPath></defs><rect fill="#ffffff" class="highcharts-background" x="0" y="0" width="600" height="500" rx="0" ry="0"></rect><rect fill="none" class="highcharts-plot-background" x="208" y="53" width="382" height="304"></rect><g class="highcharts-grid highcharts-xaxis-grid "><path fill="none" class="highcharts-grid-line" d="M 208 78.5 L 590 78.5" opacity="1"></path><path fill="none" class="highcharts-grid-line" d="M 208 104.5 L 590 104.5" opacity="1"></path><path fill="none" class="highcharts-grid-line" d="M 208 129.5 L 590 129.5" opacity="1"></path><path fill="none" class="highcharts-grid-line" d="M 208 154.5 L 590 154.5" opacity="1"></path><path fill="none" class="highcharts-grid-line" d="M 208 180.5 L 590 180.5" opacity="1"></path><path fill="none" class="highcharts-grid-line" d="M 208 205.5 L 590 205.5" opacity="1"></path><path fill="none" class="highcharts-grid-line" d="M 208 230.5 L 590 230.5" opacity="1"></path><path fill="none" class="highcharts-grid-line" d="M 208 256.5 L 590 256.5" opacity="1"></path><path fill="none" class="highcharts-grid-line" d="M 208 281.5 L 590 281.5" opacity="1"></path><path fill="none" class="highcharts-grid-line" d="M 208 306.5 L 590 306.5" opacity="1"></path><path fill="none" class="highcharts-grid-line" d="M 208 332.5 L 590 332.5" opacity="1"></path><path fill="none" class="highcharts-grid-line" d="M 208 357.5 L 590 357.5" opacity="1"></path><path fill="none" class="highcharts-grid-line" d="M 208 53.5 L 590 53.5" opacity="1"></path></g><g class="highcharts-grid highcharts-yaxis-grid "><path fill="none" stroke="#e6e6e6" stroke-width="1" class="highcharts-grid-line" d="M 207.5 53 L 207.5 357" opacity="1"></path><path fill="none" stroke="#e6e6e6" stroke-width="1" class="highcharts-grid-line" d="M 255.5 53 L 255.5 357" opacity="1"></path><path fill="none" stroke="#e6e6e6" stroke-width="1" class="highcharts-grid-line" d="M 303.5 53 L 303.5 357" opacity="1"></path><path fill="none" stroke="#e6e6e6" stroke-width="1" class="highcharts-grid-line" d="M 350.5 53 L 350.5 357" opacity="1"></path><path fill="none" stroke="#e6e6e6" stroke-width="1" class="highcharts-grid-line" d="M 398.5 53 L 398.5 357" opacity="1"></path><path fill="none" stroke="#e6e6e6" stroke-width="1" class="highcharts-grid-line" d="M 446.5 53 L 446.5 357" opacity="1"></path><path fill="none" stroke="#e6e6e6" stroke-width="1" class="highcharts-grid-line" d="M 494.5 53 L 494.5 357" opacity="1"></path><path fill="none" stroke="#e6e6e6" stroke-width="1" class="highcharts-grid-line" d="M 541.5 53 L 541.5 357" opacity="1"></path><path fill="none" stroke="#e6e6e6" stroke-width="1" class="highcharts-grid-line" d="M 590.5 53 L 590.5 357" opacity="1"></path></g><rect fill="none" class="highcharts-plot-border" x="208" y="53" width="382" height="304"></rect><g class="highcharts-axis highcharts-xaxis "><path fill="none" class="highcharts-tick" stroke="#ccd6eb" stroke-width="1" d="M 208 78.5 L 198 78.5" opacity="1"></path><path fill="none" class="highcharts-tick" stroke="#ccd6eb" stroke-width="1" d="M 208 104.5 L 198 104.5" opacity="1"></path><path fill="none" class="highcharts-tick" stroke="#ccd6eb" stroke-width="1" d="M 208 129.5 L 198 129.5" opacity="1"></path><path fill="none" class="highcharts-tick" stroke="#ccd6eb" stroke-width="1" d="M 208 154.5 L 198 154.5" opacity="1"></path><path fill="none" class="highcharts-tick" stroke="#ccd6eb" stroke-width="1" d="M 208 180.5 L 198 180.5" opacity="1"></path><path fill="none" class="highcharts-tick" stroke="#ccd6eb" stroke-width="1" d="M 208 205.5 L 198 205.5" opacity="1"></path><path fill="none" class="highcharts-tick" stroke="#ccd6eb" stroke-width="1" d="M 208 230.5 L 198 230.5" opacity="1"></path><path fill="none" class="highcharts-tick" stroke="#ccd6eb" stroke-width="1" d="M 208 256.5 L 198 256.5" opacity="1"></path><path fill="none" class="highcharts-tick" stroke="#ccd6eb" stroke-width="1" d="M 208 281.5 L 198 281.5" opacity="1"></path><path fill="none" class="highcharts-tick" stroke="#ccd6eb" stroke-width="1" d="M 208 306.5 L 198 306.5" opacity="1"></path><path fill="none" class="highcharts-tick" stroke="#ccd6eb" stroke-width="1" d="M 208 332.5 L 198 332.5" opacity="1"></path><path fill="none" class="highcharts-tick" stroke="#ccd6eb" stroke-width="1" d="M 208 357.5 L 198 357.5" opacity="1"></path><path fill="none" class="highcharts-tick" stroke="#ccd6eb" stroke-width="1" d="M 208 52.5 L 198 52.5" opacity="1"></path><path fill="none" class="highcharts-axis-line" stroke="#ccd6eb" stroke-width="1" d="M 207.5 53 L 207.5 357"></path></g><g class="highcharts-axis highcharts-yaxis "><text x="399" text-anchor="middle" transform="translate(0,0)" class="highcharts-axis-title" style="color:#666666;fill:#666666;" y="399"><tspan># Reads</tspan></text><path fill="none" class="highcharts-axis-line" d="M 208 357 L 590 357"></path></g><g class="highcharts-series-group"><g class="highcharts-series highcharts-series-0 highcharts-bar-series highcharts-color-undefined " transform="translate(590,357) rotate(90) scale(-1,1) scale(1 1)" width="382" height="304" clip-path="url(#highcharts-zrmuae6-85)"><rect x="282" y="383" width="20" height="0" fill="#20568f" class="highcharts-point"></rect><rect x="256" y="381" width="20" height="2" fill="#20568f" class="highcharts-point"></rect><rect x="231" y="381" width="20" height="2" fill="#20568f" class="highcharts-point"></rect><rect x="206" y="383" width="20" height="0" fill="#20568f" class="highcharts-point"></rect><rect x="180" y="383" width="20" height="0" fill="#20568f" class="highcharts-point"></rect><rect x="155" y="383" width="20" height="0" fill="#20568f" class="highcharts-point"></rect><rect x="130" y="383" width="20" height="0" fill="#20568f" class="highcharts-point"></rect><rect x="104" y="381" width="20" height="2" fill="#20568f" class="highcharts-point"></rect><rect x="79" y="383" width="20" height="0" fill="#20568f" class="highcharts-point"></rect><rect x="54" y="383" width="20" height="0" fill="#20568f" class="highcharts-point"></rect><rect x="28" y="383" width="20" height="0" fill="#20568f" class="highcharts-point"></rect><rect x="3" y="383" width="20" height="0" fill="#20568f" class="highcharts-point"></rect></g><g class="highcharts-markers highcharts-series-0 highcharts-bar-series highcharts-color-undefined " transform="translate(590,357) rotate(90) scale(-1,1) scale(1 1)" width="382" height="304" clip-path="none"></g><g class="highcharts-series highcharts-series-1 highcharts-bar-series highcharts-color-undefined " transform="translate(590,357) rotate(90) scale(-1,1) scale(1 1)" width="382" height="304" clip-path="url(#highcharts-zrmuae6-85)"><rect x="282" y="383" width="20" height="0" fill="#5c94ca" class="highcharts-point"></rect><rect x="256" y="381" width="20" height="0" fill="#5c94ca" class="highcharts-point"></rect><rect x="231" y="381" width="20" height="0" fill="#5c94ca" class="highcharts-point"></rect><rect x="206" y="382" width="20" height="1" fill="#5c94ca" class="highcharts-point"></rect><rect x="180" y="383" width="20" height="0" fill="#5c94ca" class="highcharts-point"></rect><rect x="155" y="383" width="20" height="0" fill="#5c94ca" class="highcharts-point"></rect><rect x="130" y="383" width="20" height="0" fill="#5c94ca" class="highcharts-point"></rect><rect x="104" y="381" width="20" height="0" fill="#5c94ca" class="highcharts-point"></rect><rect x="79" y="383" width="20" height="0" fill="#5c94ca" class="highcharts-point"></rect><rect x="54" y="383" width="20" height="0" fill="#5c94ca" class="highcharts-point"></rect><rect x="28" y="383" width="20" height="0" fill="#5c94ca" class="highcharts-point"></rect><rect x="3" y="383" width="20" height="0" fill="#5c94ca" class="highcharts-point"></rect></g><g class="highcharts-markers highcharts-series-1 highcharts-bar-series highcharts-color-undefined " transform="translate(590,357) rotate(90) scale(-1,1) scale(1 1)" width="382" height="304" clip-path="none"></g><g class="highcharts-series highcharts-series-2 highcharts-bar-series highcharts-color-undefined " transform="translate(590,357) rotate(90) scale(-1,1) scale(1 1)" width="382" height="304" clip-path="url(#highcharts-zrmuae6-85)"><rect x="282" y="383" width="20" height="0" fill="#95ceff" class="highcharts-point"></rect><rect x="256" y="380" width="20" height="1" fill="#95ceff" class="highcharts-point"></rect><rect x="231" y="380" width="20" height="1" fill="#95ceff" class="highcharts-point"></rect><rect x="206" y="382" width="20" height="0" fill="#95ceff" class="highcharts-point"></rect><rect x="180" y="383" width="20" height="0" fill="#95ceff" class="highcharts-point"></rect><rect x="155" y="383" width="20" height="0" fill="#95ceff" class="highcharts-point"></rect><rect x="130" y="382" width="20" height="1" fill="#95ceff" class="highcharts-point"></rect><rect x="104" y="380" width="20" height="1" fill="#95ceff" class="highcharts-point"></rect><rect x="79" y="383" width="20" height="0" fill="#95ceff" class="highcharts-point"></rect><rect x="54" y="383" width="20" height="0" fill="#95ceff" class="highcharts-point"></rect><rect x="28" y="383" width="20" height="0" fill="#95ceff" class="highcharts-point"></rect><rect x="3" y="383" width="20" height="0" fill="#95ceff" class="highcharts-point"></rect></g><g class="highcharts-markers highcharts-series-2 highcharts-bar-series highcharts-color-undefined " transform="translate(590,357) rotate(90) scale(-1,1) scale(1 1)" width="382" height="304" clip-path="none"></g><g class="highcharts-series highcharts-series-3 highcharts-bar-series highcharts-color-undefined " transform="translate(590,357) rotate(90) scale(-1,1) scale(1 1)" width="382" height="304" clip-path="url(#highcharts-zrmuae6-85)"><rect x="282" y="383" width="20" height="0" fill="#f7a35c" class="highcharts-point"></rect><rect x="256" y="376" width="20" height="4" fill="#f7a35c" class="highcharts-point"></rect><rect x="231" y="376" width="20" height="4" fill="#f7a35c" class="highcharts-point"></rect><rect x="206" y="381" width="20" height="1" fill="#f7a35c" class="highcharts-point"></rect><rect x="180" y="383" width="20" height="0" fill="#f7a35c" class="highcharts-point"></rect><rect x="155" y="383" width="20" height="0" fill="#f7a35c" class="highcharts-point"></rect><rect x="130" y="382" width="20" height="0" fill="#f7a35c" class="highcharts-point"></rect><rect x="104" y="377" width="20" height="3" fill="#f7a35c" class="highcharts-point"></rect><rect x="79" y="383" width="20" height="0" fill="#f7a35c" class="highcharts-point"></rect><rect x="54" y="383" width="20" height="0" fill="#f7a35c" class="highcharts-point"></rect><rect x="28" y="383" width="20" height="0" fill="#f7a35c" class="highcharts-point"></rect><rect x="3" y="383" width="20" height="0" fill="#f7a35c" class="highcharts-point"></rect></g><g class="highcharts-markers highcharts-series-3 highcharts-bar-series highcharts-color-undefined " transform="translate(590,357) rotate(90) scale(-1,1) scale(1 1)" width="382" height="304" clip-path="none"></g><g class="highcharts-series highcharts-series-4 highcharts-bar-series highcharts-color-undefined " transform="translate(590,357) rotate(90) scale(-1,1) scale(1 1)" width="382" height="304" clip-path="url(#highcharts-zrmuae6-85)"><rect x="282" y="383" width="20" height="0" fill="#ffeb75" class="highcharts-point"></rect><rect x="256" y="374" width="20" height="2" fill="#ffeb75" class="highcharts-point"></rect><rect x="231" y="375" width="20" height="1" fill="#ffeb75" class="highcharts-point"></rect><rect x="206" y="381" width="20" height="0" fill="#ffeb75" class="highcharts-point"></rect><rect x="180" y="383" width="20" height="0" fill="#ffeb75" class="highcharts-point"></rect><rect x="155" y="383" width="20" height="0" fill="#ffeb75" class="highcharts-point"></rect><rect x="130" y="381" width="20" height="1" fill="#ffeb75" class="highcharts-point"></rect><rect x="104" y="376" width="20" height="1" fill="#ffeb75" class="highcharts-point"></rect><rect x="79" y="382" width="20" height="1" fill="#ffeb75" class="highcharts-point"></rect><rect x="54" y="383" width="20" height="0" fill="#ffeb75" class="highcharts-point"></rect><rect x="28" y="383" width="20" height="0" fill="#ffeb75" class="highcharts-point"></rect><rect x="3" y="383" width="20" height="0" fill="#ffeb75" class="highcharts-point"></rect></g><g class="highcharts-markers highcharts-series-4 highcharts-bar-series highcharts-color-undefined " transform="translate(590,357) rotate(90) scale(-1,1) scale(1 1)" width="382" height="304" clip-path="none"></g><g class="highcharts-series highcharts-series-5 highcharts-bar-series highcharts-color-undefined " transform="translate(590,357) rotate(90) scale(-1,1) scale(1 1)" width="382" height="304" clip-path="url(#highcharts-zrmuae6-85)"><rect x="282" y="71" width="20" height="312" fill="#981919" class="highcharts-point"></rect><rect x="256" y="154" width="20" height="220" fill="#981919" class="highcharts-point"></rect><rect x="231" y="147" width="20" height="228" fill="#981919" class="highcharts-point"></rect><rect x="206" y="93" width="20" height="288" fill="#981919" class="highcharts-point"></rect><rect x="180" y="86" width="20" height="297" fill="#981919" class="highcharts-point"></rect><rect x="155" y="71" width="20" height="312" fill="#981919" class="highcharts-point"></rect><rect x="130" y="96" width="20" height="285" fill="#981919" class="highcharts-point"></rect><rect x="104" y="162" width="20" height="214" fill="#981919" class="highcharts-point"></rect><rect x="79" y="86" width="20" height="296" fill="#981919" class="highcharts-point"></rect><rect x="54" y="59" width="20" height="324" fill="#981919" class="highcharts-point"></rect><rect x="28" y="81" width="20" height="302" fill="#981919" class="highcharts-point"></rect><rect x="3" y="62" width="20" height="321" fill="#981919" class="highcharts-point"></rect></g><g class="highcharts-markers highcharts-series-5 highcharts-bar-series highcharts-color-undefined " transform="translate(590,357) rotate(90) scale(-1,1) scale(1 1)" width="382" height="304" clip-path="none"></g></g><text x="300" text-anchor="middle" class="highcharts-title" style="color:#333333;font-size:18px;fill:#333333;width:536px;" y="24"><tspan>Bowtie 2: PE Alignment Scores</tspan></text><g class="highcharts-legend" transform="translate(22,417)"><rect fill="none" class="highcharts-legend-box" rx="0" ry="0" x="0" y="0" width="555" height="68" visibility="visible"></rect><g><g><g class="highcharts-legend-item highcharts-bar-series highcharts-color-undefined highcharts-series-0" transform="translate(8,3)"><text x="21" style="color:#333333;font-size:12px;font-weight:bold;cursor:pointer;fill:#333333;" text-anchor="start" y="15"><tspan>PE mapped uniquely</tspan></text><rect x="2" y="4" width="12" height="12" fill="#20568f" rx="6" ry="6" class="highcharts-point"></rect></g><g class="highcharts-legend-item highcharts-bar-series highcharts-color-undefined highcharts-series-1" transform="translate(171.03125,3)"><text x="21" y="15" style="color:#333333;font-size:12px;font-weight:bold;cursor:pointer;fill:#333333;" text-anchor="start"><tspan>PE mapped discordantly uniquely</tspan></text><rect x="2" y="4" width="12" height="12" fill="#5c94ca" rx="6" ry="6" class="highcharts-point"></rect></g><g class="highcharts-legend-item highcharts-bar-series highcharts-color-undefined highcharts-series-2" transform="translate(8,22)"><text x="21" y="15" style="color:#333333;font-size:12px;font-weight:bold;cursor:pointer;fill:#333333;" text-anchor="start"><tspan>PE one mate mapped uniquely</tspan></text><rect x="2" y="4" width="12" height="12" fill="#95ceff" rx="6" ry="6" class="highcharts-point"></rect></g><g class="highcharts-legend-item highcharts-bar-series highcharts-color-undefined highcharts-series-3" transform="translate(230.8125,22)"><text x="21" y="15" style="color:#333333;font-size:12px;font-weight:bold;cursor:pointer;fill:#333333;" text-anchor="start"><tspan>PE multimapped</tspan></text><rect x="2" y="4" width="12" height="12" fill="#f7a35c" rx="6" ry="6" class="highcharts-point"></rect></g><g class="highcharts-legend-item highcharts-bar-series highcharts-color-undefined highcharts-series-4" transform="translate(369.125,22)"><text x="21" y="15" style="color:#333333;font-size:12px;font-weight:bold;cursor:pointer;fill:#333333;" text-anchor="start"><tspan>PE one mate multimapped</tspan></text><rect x="2" y="4" width="12" height="12" fill="#ffeb75" rx="6" ry="6" class="highcharts-point"></rect></g><g class="highcharts-legend-item highcharts-bar-series highcharts-color-undefined highcharts-series-5" transform="translate(8,41)"><text x="21" y="15" style="color:#333333;font-size:12px;font-weight:bold;cursor:pointer;fill:#333333;" text-anchor="start"><tspan>PE neither mate aligned</tspan></text><rect x="2" y="4" width="12" height="12" fill="#981919" rx="6" ry="6" class="highcharts-point"></rect></g></g></g></g><g class="highcharts-axis-labels highcharts-xaxis-labels "><text x="193" style="color:#666666;cursor:default;font-size:11px;fill:#666666;width:188px;text-overflow:clip;" text-anchor="end" transform="translate(0,0)" y="68" opacity="1"><tspan>C1_1_kneaddata.trimmed.single.1</tspan></text><text x="193" style="color:#666666;cursor:default;font-size:11px;fill:#666666;width:188px;text-overflow:clip;" text-anchor="end" transform="translate(0,0)" y="93" opacity="1"><tspan>C2_1_kneaddata.trimmed.single.1</tspan></text><text x="193" style="color:#666666;cursor:default;font-size:11px;fill:#666666;width:188px;text-overflow:clip;" text-anchor="end" transform="translate(0,0)" y="119" opacity="1"><tspan>C3_1_kneaddata.trimmed.single.1</tspan></text><text x="193" style="color:#666666;cursor:default;font-size:11px;fill:#666666;width:188px;text-overflow:clip;" text-anchor="end" transform="translate(0,0)" y="144" opacity="1"><tspan>C4_1_kneaddata.trimmed.single.1</tspan></text><text x="193" style="color:#666666;cursor:default;font-size:11px;fill:#666666;width:188px;text-overflow:clip;" text-anchor="end" transform="translate(0,0)" y="169" opacity="1"><tspan>C5_1_kneaddata.trimmed.single.1</tspan></text><text x="193" style="color:#666666;cursor:default;font-size:11px;fill:#666666;width:188px;text-overflow:clip;" text-anchor="end" transform="translate(0,0)" y="195" opacity="1"><tspan>C6_1_kneaddata.trimmed.single.1</tspan></text><text x="193" style="color:#666666;cursor:default;font-size:11px;fill:#666666;width:188px;text-overflow:clip;" text-anchor="end" transform="translate(0,0)" y="220" opacity="1"><tspan>N1_1_kneaddata.trimmed.single.1</tspan></text><text x="193" style="color:#666666;cursor:default;font-size:11px;fill:#666666;width:188px;text-overflow:clip;" text-anchor="end" transform="translate(0,0)" y="246" opacity="1"><tspan>N2_1_kneaddata.trimmed.single.1</tspan></text><text x="193" style="color:#666666;cursor:default;font-size:11px;fill:#666666;width:188px;text-overflow:clip;" text-anchor="end" transform="translate(0,0)" y="271" opacity="1"><tspan>N3_1_kneaddata.trimmed.single.1</tspan></text><text x="193" style="color:#666666;cursor:default;font-size:11px;fill:#666666;width:188px;text-overflow:clip;" text-anchor="end" transform="translate(0,0)" y="296" opacity="1"><tspan>N4_1_kneaddata.trimmed.single.1</tspan></text><text x="193" style="color:#666666;cursor:default;font-size:11px;fill:#666666;width:188px;text-overflow:clip;" text-anchor="end" transform="translate(0,0)" y="322" opacity="1"><tspan>N5_1_kneaddata.trimmed.single.1</tspan></text><text x="193" style="color:#666666;cursor:default;font-size:11px;fill:#666666;width:188px;text-overflow:clip;" text-anchor="end" transform="translate(0,0)" y="347" opacity="1"><tspan>N6_1_kneaddata.trimmed.single.1</tspan></text></g><g class="highcharts-axis-labels highcharts-yaxis-labels "><text x="208" style="color:#666666;cursor:default;font-size:11px;fill:#666666;width:47.75;text-overflow:ellipsis;" text-anchor="middle" transform="translate(0,0)" y="376" opacity="1"><tspan>0</tspan></text><text x="255.75" style="color:#666666;cursor:default;font-size:11px;fill:#666666;width:47.75;text-overflow:ellipsis;" text-anchor="middle" transform="translate(0,0)" y="376" opacity="1"><tspan>10k</tspan></text><text x="303.5" style="color:#666666;cursor:default;font-size:11px;fill:#666666;width:47.75;text-overflow:ellipsis;" text-anchor="middle" transform="translate(0,0)" y="376" opacity="1"><tspan>20k</tspan></text><text x="351.25" style="color:#666666;cursor:default;font-size:11px;fill:#666666;width:47.75;text-overflow:ellipsis;" text-anchor="middle" transform="translate(0,0)" y="376" opacity="1"><tspan>30k</tspan></text><text x="399" style="color:#666666;cursor:default;font-size:11px;fill:#666666;width:47.75;text-overflow:ellipsis;" text-anchor="middle" transform="translate(0,0)" y="376" opacity="1"><tspan>40k</tspan></text><text x="446.75" style="color:#666666;cursor:default;font-size:11px;fill:#666666;width:47.75;text-overflow:ellipsis;" text-anchor="middle" transform="translate(0,0)" y="376" opacity="1"><tspan>50k</tspan></text><text x="494.5" style="color:#666666;cursor:default;font-size:11px;fill:#666666;width:47.75;text-overflow:ellipsis;" text-anchor="middle" transform="translate(0,0)" y="376" opacity="1"><tspan>60k</tspan></text><text x="542.25" style="color:#666666;cursor:default;font-size:11px;fill:#666666;width:47.75;text-overflow:ellipsis;" text-anchor="middle" transform="translate(0,0)" y="376" opacity="1"><tspan>70k</tspan></text><text x="579.7890625" style="color:#666666;cursor:default;font-size:11px;fill:#666666;width:23.875;text-overflow:ellipsis;" text-anchor="middle" transform="translate(0,0)" y="376" opacity="1"><tspan>80k</tspan></text></g><text x="590" class="highcharts-credits" text-anchor="end" style="cursor:pointer;color:#999999;font-size:9px;fill:#999999;" y="495"><tspan>Created with MultiQC</tspan></text></svg>