<svg xmlns:xlink="http://www.w3.org/1999/xlink" version="1.1" class="highcharts-root" style="font-family:&quot;lucida grande&quot;, &quot;lucida sans unicode&quot;, arial, helvetica, sans-serif;font-size:12px;" xmlns="http://www.w3.org/2000/svg" width="600" height="400"><desc>Created with Highcharts 5.0.6</desc><defs><clipPath id="highcharts-mhh1c17-31"><rect x="0" y="0" width="523" height="284" fill="none"></rect></clipPath></defs><rect fill="#ffffff" class="highcharts-background" x="0" y="0" width="600" height="400" rx="0" ry="0"></rect><rect fill="none" class="highcharts-plot-background" x="67" y="53" width="523" height="284"></rect><g class="highcharts-plot-bands-0"><path fill="#c3e6c3" class="highcharts-plot-band " d="M 67 178.5 L 590 178.5 590 53.5 67 53.5 z"></path><path fill="#e6dcc3" class="highcharts-plot-band " d="M 67 223.5 L 590 223.5 590 178.5 67 178.5 z"></path><path fill="#e6c3c3" class="highcharts-plot-band " d="M 67 337.5 L 590 337.5 590 223.5 67 223.5 z"></path></g><g class="highcharts-grid highcharts-xaxis-grid "><path fill="none" class="highcharts-grid-line" d="M 170.5 53 L 170.5 337" opacity="1"></path><path fill="none" class="highcharts-grid-line" d="M 273.5 53 L 273.5 337" opacity="1"></path><path fill="none" class="highcharts-grid-line" d="M 377.5 53 L 377.5 337" opacity="1"></path><path fill="none" class="highcharts-grid-line" d="M 480.5 53 L 480.5 337" opacity="1"></path><path fill="none" class="highcharts-grid-line" d="M 584.5 53 L 584.5 337" opacity="1"></path></g><g class="highcharts-grid highcharts-yaxis-grid "><path fill="none" stroke="#e6e6e6" stroke-width="1" class="highcharts-grid-line" d="M 67 337.5 L 590 337.5" opacity="1"></path><path fill="none" stroke="#e6e6e6" stroke-width="1" class="highcharts-grid-line" d="M 67 280.5 L 590 280.5" opacity="1"></path><path fill="none" stroke="#e6e6e6" stroke-width="1" class="highcharts-grid-line" d="M 67 223.5 L 590 223.5" opacity="1"></path><path fill="none" stroke="#e6e6e6" stroke-width="1" class="highcharts-grid-line" d="M 67 167.5 L 590 167.5" opacity="1"></path><path fill="none" stroke="#e6e6e6" stroke-width="1" class="highcharts-grid-line" d="M 67 110.5 L 590 110.5" opacity="1"></path><path fill="none" stroke="#e6e6e6" stroke-width="1" class="highcharts-grid-line" d="M 67 52.5 L 590 52.5" opacity="1"></path></g><rect fill="none" class="highcharts-plot-border" x="67" y="53" width="523" height="284"></rect><g class="highcharts-axis highcharts-xaxis "><path fill="none" class="highcharts-tick" stroke="#ccd6eb" stroke-width="1" d="M 170.5 337 L 170.5 347" opacity="1"></path><path fill="none" class="highcharts-tick" stroke="#ccd6eb" stroke-width="1" d="M 273.5 337 L 273.5 347" opacity="1"></path><path fill="none" class="highcharts-tick" stroke="#ccd6eb" stroke-width="1" d="M 377.5 337 L 377.5 347" opacity="1"></path><path fill="none" class="highcharts-tick" stroke="#ccd6eb" stroke-width="1" d="M 480.5 337 L 480.5 347" opacity="1"></path><path fill="none" class="highcharts-tick" stroke="#ccd6eb" stroke-width="1" d="M 584.5 337 L 584.5 347" opacity="1"></path><text x="328.5" text-anchor="middle" transform="translate(0,0)" class="highcharts-axis-title" style="color:#666666;fill:#666666;" y="379"><tspan>Position (bp)</tspan></text><path fill="none" class="highcharts-axis-line" stroke="#ccd6eb" stroke-width="1" d="M 67 337.5 L 590 337.5"></path></g><g class="highcharts-axis highcharts-yaxis "><text x="28.078125" text-anchor="middle" transform="translate(0,0) rotate(270 28.078125 195)" class="highcharts-axis-title" style="color:#666666;fill:#666666;" y="195"><tspan>Phred Score</tspan></text><path fill="none" class="highcharts-axis-line" d="M 67 53 L 67 337"></path></g><g class="highcharts-series-group"><g class="highcharts-series highcharts-series-0 highcharts-line-series highcharts-color-undefined " transform="translate(67,53) scale(1 1)" width="284" height="523" clip-path="url(#highcharts-mhh1c17-31)"><path fill="none" d="M 5.1274509803922 101.65480853333335 L 10.30669439493 100.83120853333332 L 15.485937809467 100.4151296 L 20.665181224005 80.2324992 L 25.844424638542 81.31904533333332 L 31.02366805308 81.41712000000004 L 36.202911467617 81.48535573333334 L 41.382154882155 81.67938453333335 L 46.561398296692 72.50111040000002 L 51.74064171123 72.59891999999996 L 62.099128540305 72.53856053333334 L 72.45761536938 65.1966304 L 82.816102198455 65.53061440000002 L 93.17458902753 65.26982666666666 L 103.53307585661 65.04747359999999 L 113.89156268568 65.30970026666668 L 124.25004951476 65.65034880000002 L 134.60853634383 66.52949920000003 L 144.96702317291 67.45238560000001 L 155.32551000198 68.76825226666668 L 165.68399683106 69.13680853333335 L 176.04248366013 69.44667146666666 L 186.40097048921 70.02921226666669 L 196.75945731828 70.05818026666668 L 207.11794414736 69.4170976 L 217.47643097643 69.63195306666668 L 227.83491780551 70.03383200000002 L 238.19340463458 70.59353919999998 L 248.55189146366 71.20663840000003 L 258.91037829273 71.98612373333336 L 269.26886512181 73.2409493333333 L 279.62735195088 74.66878773333335 L 289.98583877996 75.52324906666666 L 300.34432560903 75.10008906666667 L 310.70281243811 75.96405493333333 L 321.06129926718 77.51711839999999 L 331.41978609626 78.90409866666664 L 341.77827292533 79.85421120000004 L 352.13675975441 81.24066133333332 L 362.49524658348 82.76456746666668 L 372.85373341256 84.36621386666667 L 383.21222024163 86.11258666666666 L 393.57070707071 94.55503573333334 L 403.92919389978 90.49800106666669 L 414.28768072886 90.94535786666665 L 424.64616755793 91.96132053333335 L 435.00465438701 93.53933813333333 L 445.36314121608 95.84094986666668 L 455.72162804516 97.43612106666666 L 466.08011487423 98.43830026666666 L 476.43860170331 99.27549440000004 L 486.79708853238 100.44712693333335 L 497.15557536146 101.9137408 L 507.51406219053 103.57249013333333 L 517.87254901961 109.01366506666668" class="highcharts-graph" stroke="#5cb85c" stroke-width="2" stroke-linejoin="round" stroke-linecap="round"></path></g><g class="highcharts-markers highcharts-series-0 highcharts-line-series highcharts-color-undefined " transform="translate(67,53) scale(1 1)" width="284" height="523" clip-path="none"></g><g class="highcharts-series highcharts-series-1 highcharts-line-series highcharts-color-undefined " transform="translate(67,53) scale(1 1)" width="284" height="523" clip-path="url(#highcharts-mhh1c17-31)"><path fill="none" d="M 5.1274509803922 108.31616106666667 L 10.30669439493 107.49460586666669 L 15.485937809467 107.29027733333334 L 20.665181224005 87.42868053333333 L 25.844424638542 87.71730026666668 L 31.02366805308 87.38770880000001 L 36.202911467617 87.53985706666666 L 41.382154882155 87.59173440000004 L 46.561398296692 78.82855466666669 L 51.74064171123 78.65069493333334 L 62.099128540305 78.37320800000003 L 72.45761536938 71.24177866666668 L 82.816102198455 71.24155146666669 L 93.17458902753 71.44743253333334 L 103.53307585661 71.5600858666667 L 113.89156268568 71.90005280000003 L 124.25004951476 72.3476746666667 L 134.60853634383 73.24996159999998 L 144.96702317291 73.97862986666667 L 155.32551000198 74.12986933333337 L 165.68399683106 74.49107946666666 L 176.04248366013 74.69892959999999 L 186.40097048921 74.83237173333333 L 196.75945731828 75.24663306666667 L 207.11794414736 75.4692512 L 217.47643097643 74.53807200000003 L 227.83491780551 74.84941173333331 L 238.19340463458 77.550176 L 248.55189146366 78.5381552 L 258.91037829273 84.29271466666665 L 269.26886512181 83.96543306666666 L 279.62735195088 81.07832693333336 L 289.98583877996 81.14103413333333 L 300.34432560903 81.77798933333335 L 310.70281243811 82.62631626666666 L 321.06129926718 83.69059680000001 L 331.41978609626 84.85370933333331 L 341.77827292533 85.5434128 L 352.13675975441 86.09062400000002 L 362.49524658348 87.56200906666669 L 372.85373341256 89.19428960000002 L 383.21222024163 90.94755413333334 L 393.57070707071 92.76750186666669 L 403.92919389978 94.55329386666668 L 414.28768072886 96.41553866666669 L 424.64616755793 98.15994239999998 L 435.00465438701 100.12927413333335 L 445.36314121608 101.37236106666666 L 455.72162804516 102.56951573333336 L 466.08011487423 103.80821013333335 L 476.43860170331 104.98529546666668 L 486.79708853238 106.22251306666666 L 497.15557536146 107.54337813333333 L 507.51406219053 109.53365013333334 L 517.87254901961 116.33802506666669" class="highcharts-graph" stroke="#5cb85c" stroke-width="2" stroke-linejoin="round" stroke-linecap="round"></path></g><g class="highcharts-markers highcharts-series-1 highcharts-line-series highcharts-color-undefined " transform="translate(67,53) scale(1 1)" width="284" height="523" clip-path="none"></g><g class="highcharts-series highcharts-series-2 highcharts-line-series highcharts-color-undefined " transform="translate(67,53) scale(1 1)" width="284" height="523" clip-path="url(#highcharts-mhh1c17-31)"><path fill="none" d="M 5.1274509803922 137.6095872 L 10.30669439493 136.952752 L 15.485937809467 136.67571946666666 L 20.665181224005 120.62737173333335 L 25.844424638542 120.956736 L 31.02366805308 121.13902613333335 L 36.202911467617 121.36963413333336 L 41.382154882155 121.50875626666667 L 46.561398296692 114.85020586666667 L 51.74064171123 115.02230986666669 L 62.099128540305 115.1718832 L 72.45761536938 110.21907466666667 L 82.816102198455 110.66790826666667 L 93.17458902753 111.21455146666668 L 103.53307585661 111.80451413333336 L 113.89156268568 112.46203093333332 L 124.25004951476 113.57905973333334 L 134.60853634383 114.90484746666667 L 144.96702317291 116.2847088 L 155.32551000198 117.37568533333334 L 165.68399683106 118.29792800000001 L 176.04248366013 119.18665866666669 L 186.40097048921 120.39089440000001 L 196.75945731828 121.78363040000002 L 207.11794414736 123.07477013333332 L 217.47643097643 122.96563839999999 L 227.83491780551 124.11311200000003 L 238.19340463458 127.30489333333333 L 248.55189146366 128.95610720000002 L 258.91037829273 133.85317600000002 L 269.26886512181 134.22195946666668 L 279.62735195088 132.41768853333335 L 289.98583877996 132.84118933333335 L 300.34432560903 133.54603946666666 L 310.70281243811 134.3527888 L 321.06129926718 135.20687146666666 L 331.41978609626 136.33204160000003 L 341.77827292533 136.951616 L 352.13675975441 136.8892496 L 362.49524658348 137.76124320000002 L 372.85373341256 138.86539733333333 L 383.21222024163 140.12953813333334 L 393.57070707071 141.41234720000003 L 403.92919389978 142.70655413333333 L 414.28768072886 143.96550720000002 L 424.64616755793 145.24945226666668 L 435.00465438701 146.68425813333334 L 445.36314121608 147.56893706666668 L 455.72162804516 148.6599136 L 466.08011487423 149.99229013333334 L 476.43860170331 151.17918293333335 L 486.79708853238 152.5485552 L 497.15557536146 154.221656 L 507.51406219053 156.582832 L 517.87254901961 163.452224" class="highcharts-graph" stroke="#d9534f" stroke-width="2" stroke-linejoin="round" stroke-linecap="round"></path></g><g class="highcharts-markers highcharts-series-2 highcharts-line-series highcharts-color-undefined " transform="translate(67,53) scale(1 1)" width="284" height="523" clip-path="none"></g><g class="highcharts-series highcharts-series-3 highcharts-line-series highcharts-color-undefined " transform="translate(67,53) scale(1 1)" width="284" height="523" clip-path="url(#highcharts-mhh1c17-31)"><path fill="none" d="M 5.1274509803922 106.46296640000003 L 10.30669439493 105.74970986666668 L 15.485937809467 105.14778133333334 L 20.665181224005 84.79111573333333 L 25.844424638542 86.3027530666667 L 31.02366805308 86.54184320000002 L 36.202911467617 86.85583360000001 L 41.382154882155 87.02562773333332 L 46.561398296692 78.654368 L 51.74064171123 78.79250560000003 L 62.099128540305 79.08737333333335 L 72.45761536938 72.72690933333337 L 82.816102198455 73.04317173333334 L 93.17458902753 73.29362186666668 L 103.53307585661 73.40627520000001 L 113.89156268568 74.38993760000002 L 124.25004951476 75.15196640000002 L 134.60853634383 78.24135626666668 L 144.96702317291 84.77846826666669 L 155.32551000198 97.46043146666668 L 165.68399683106 94.6801472 L 176.04248366013 92.04129493333335 L 186.40097048921 92.87652000000003 L 196.75945731828 96.73414879999999 L 207.11794414736 96.07572320000003 L 217.47643097643 94.42753866666666 L 227.83491780551 93.48556746666665 L 238.19340463458 94.45650666666666 L 248.55189146366 95.70394826666671 L 258.91037829273 97.2462576 L 269.26886512181 107.18962773333334 L 279.62735195088 113.0243888 L 289.98583877996 111.49154613333334 L 300.34432560903 107.98808426666668 L 310.70281243811 110.38902026666668 L 321.06129926718 113.94663146666664 L 331.41978609626 115.63067573333333 L 341.77827292533 113.24367466666666 L 352.13675975441 112.20215200000001 L 362.49524658348 114.36914773333334 L 372.85373341256 116.30848906666668 L 383.21222024163 117.87465440000003 L 393.57070707071 125.25471626666669 L 403.92919389978 129.57791573333336 L 414.28768072886 129.52107786666667 L 424.64616755793 128.91274986666667 L 435.00465438701 130.62261920000003 L 445.36314121608 135.4374416 L 455.72162804516 137.1402298666667 L 466.08011487423 138.06463093333332 L 476.43860170331 138.56333493333335 L 486.79708853238 139.36232160000003 L 497.15557536146 141.07344053333333 L 507.51406219053 143.2188522666667 L 517.87254901961 149.5172528" class="highcharts-graph" stroke="#d9534f" stroke-width="2" stroke-linejoin="round" stroke-linecap="round"></path></g><g class="highcharts-markers highcharts-series-3 highcharts-line-series highcharts-color-undefined " transform="translate(67,53) scale(1 1)" width="284" height="523" clip-path="none"></g><g class="highcharts-series highcharts-series-4 highcharts-line-series highcharts-color-undefined " transform="translate(67,53) scale(1 1)" width="284" height="523" clip-path="url(#highcharts-mhh1c17-31)"><path fill="none" d="M 5.1274509803922 106.27832853333334 L 10.30669439493 105.56120960000001 L 15.485937809467 104.87135466666666 L 20.665181224005 84.60549333333336 L 25.844424638542 86.11205653333334 L 31.02366805308 86.25208746666667 L 36.202911467617 86.77025493333335 L 41.382154882155 86.71784746666668 L 46.561398296692 78.52562133333333 L 51.74064171123 78.7134778666667 L 62.099128540305 78.74134773333338 L 72.45761536938 72.44453760000002 L 82.816102198455 72.50239786666666 L 93.17458902753 72.75792213333335 L 103.53307585661 72.70706720000001 L 113.89156268568 73.27798293333336 L 124.25004951476 74.05549920000001 L 134.60853634383 76.9924 L 144.96702317291 83.25744000000003 L 155.32551000198 96.04974666666669 L 165.68399683106 92.72035786666666 L 176.04248366013 89.37343680000001 L 186.40097048921 89.5959034666667 L 196.75945731828 92.48672053333331 L 207.11794414736 91.32296426666667 L 217.47643097643 89.3057690666667 L 227.83491780551 88.25110666666666 L 238.19340463458 88.65499253333331 L 248.55189146366 89.50320586666669 L 258.91037829273 90.70691146666667 L 269.26886512181 100.72397013333332 L 279.62735195088 106.36693653333336 L 289.98583877996 104.58383306666667 L 300.34432560903 101.13035520000005 L 310.70281243811 103.66689173333333 L 321.06129926718 107.26509600000003 L 331.41978609626 108.57266986666667 L 341.77827292533 106.09600053333335 L 352.13675975441 104.59220160000001 L 362.49524658348 106.09149440000002 L 372.85373341256 107.8714928 L 383.21222024163 109.42129973333334 L 393.57070707071 116.93120640000001 L 403.92919389978 122.16157760000002 L 414.28768072886 122.11129066666666 L 424.64616755793 121.56142880000002 L 435.00465438701 123.44999093333334 L 445.36314121608 128.6041744 L 455.72162804516 130.3955328 L 466.08011487423 131.39229706666669 L 476.43860170331 131.86854613333333 L 486.79708853238 132.4698688 L 497.15557536146 133.892368 L 507.51406219053 135.89222026666667 L 517.87254901961 141.72993493333334" class="highcharts-graph" stroke="#d9534f" stroke-width="2" stroke-linejoin="round" stroke-linecap="round"></path></g><g class="highcharts-markers highcharts-series-4 highcharts-line-series highcharts-color-undefined " transform="translate(67,53) scale(1 1)" width="284" height="523" clip-path="none"></g><g class="highcharts-series highcharts-series-5 highcharts-line-series highcharts-color-undefined " transform="translate(67,53) scale(1 1)" width="284" height="523" clip-path="url(#highcharts-mhh1c17-31)"><path fill="none" d="M 5.1274509803922 135.98548586666666 L 10.30669439493 135.11053866666668 L 15.485937809467 134.99890773333334 L 20.665181224005 118.71056106666666 L 25.844424638542 119.18268266666666 L 31.02366805308 118.94919680000001 L 36.202911467617 119.26068800000002 L 41.382154882155 119.45388373333336 L 46.561398296692 112.66961600000002 L 51.74064171123 112.67044906666669 L 62.099128540305 112.82736853333336 L 72.45761536938 107.54667253333335 L 82.816102198455 107.97414933333334 L 93.17458902753 108.36216906666667 L 103.53307585661 108.59232266666669 L 113.89156268568 109.28638080000002 L 124.25004951476 109.97089653333333 L 134.60853634383 111.17251946666667 L 144.96702317291 112.13766506666667 L 155.32551000198 112.91968746666666 L 165.68399683106 113.57629546666666 L 176.04248366013 113.98945866666668 L 186.40097048921 114.59187946666668 L 196.75945731828 115.35837653333334 L 207.11794414736 116.1884896 L 217.47643097643 115.70243306666669 L 227.83491780551 116.12521440000003 L 238.19340463458 118.90197706666669 L 248.55189146366 120.23859466666667 L 258.91037829273 124.7171610666667 L 269.26886512181 124.892976 L 279.62735195088 122.66236426666669 L 289.98583877996 122.94113866666666 L 300.34432560903 123.70237226666666 L 310.70281243811 124.29922666666667 L 321.06129926718 125.12574240000001 L 331.41978609626 126.04571306666668 L 341.77827292533 126.5148432 L 352.13675975441 126.75234293333335 L 362.49524658348 127.76732106666668 L 372.85373341256 128.89483893333335 L 383.21222024163 130.22202773333333 L 393.57070707071 131.71333066666668 L 403.92919389978 133.2479152 L 414.28768072886 134.67291360000002 L 424.64616755793 136.00332106666667 L 435.00465438701 137.4845514666667 L 445.36314121608 138.37998453333333 L 455.72162804516 139.53688693333334 L 466.08011487423 140.70893600000002 L 476.43860170331 141.89045173333335 L 486.79708853238 143.00600373333333 L 497.15557536146 144.43793173333333 L 507.51406219053 146.65131413333336 L 517.87254901961 152.81229653333335" class="highcharts-graph" stroke="#d9534f" stroke-width="2" stroke-linejoin="round" stroke-linecap="round"></path></g><g class="highcharts-markers highcharts-series-5 highcharts-line-series highcharts-color-undefined " transform="translate(67,53) scale(1 1)" width="284" height="523" clip-path="none"></g><g class="highcharts-series highcharts-series-6 highcharts-line-series highcharts-color-undefined " transform="translate(67,53) scale(1 1)" width="284" height="523" clip-path="url(#highcharts-mhh1c17-31)"><path fill="none" d="M 5.1274509803922 102.72030080000002 L 10.30669439493 101.85671359999998 L 15.485937809467 101.26228266666666 L 20.665181224005 81.3119264 L 25.844424638542 82.19634026666668 L 31.02366805308 82.19399253333336 L 36.202911467617 82.44050453333332 L 41.382154882155 82.57758186666666 L 46.561398296692 73.5982592 L 51.74064171123 73.55425813333332 L 62.099128540305 73.6397610666667 L 72.45761536938 66.59360746666667 L 82.816102198455 66.71781013333336 L 93.17458902753 66.4831504 L 103.53307585661 66.42362399999999 L 113.89156268568 67.08776746666669 L 124.25004951476 67.64258986666667 L 134.60853634383 69.00616853333332 L 144.96702317291 70.97319040000002 L 155.32551000198 75.28412106666667 L 165.68399683106 74.96532160000004 L 176.04248366013 74.70089866666669 L 186.40097048921 74.96414773333333 L 196.75945731828 76.21730720000002 L 207.11794414736 75.97223413333336 L 217.47643097643 75.9310352 L 227.83491780551 76.60324426666665 L 238.19340463458 77.58967093333334 L 248.55189146366 78.41361173333331 L 258.91037829273 79.82690933333336 L 269.26886512181 83.39894773333333 L 279.62735195088 86.442216 L 289.98583877996 87.2193536 L 300.34432560903 86.18956960000003 L 310.70281243811 86.89991039999998 L 321.06129926718 89.53243893333337 L 331.41978609626 91.61427253333332 L 341.77827292533 92.35948853333332 L 352.13675975441 92.93915146666669 L 362.49524658348 94.33991519999998 L 372.85373341256 95.77453173333336 L 383.21222024163 97.70970773333335 L 393.57070707071 104.79630293333335 L 403.92919389978 102.4585664 L 414.28768072886 103.11865813333335 L 424.64616755793 103.27845546666666 L 435.00465438701 104.8617744 L 445.36314121608 107.65993173333334 L 455.72162804516 109.18114933333337 L 466.08011487423 109.90012373333334 L 476.43860170331 110.54578826666668 L 486.79708853238 111.06425866666669 L 497.15557536146 112.56908000000001 L 507.51406219053 114.80287253333333 L 517.87254901961 120.53978613333334" class="highcharts-graph" stroke="#5cb85c" stroke-width="2" stroke-linejoin="round" stroke-linecap="round"></path></g><g class="highcharts-markers highcharts-series-6 highcharts-line-series highcharts-color-undefined " transform="translate(67,53) scale(1 1)" width="284" height="523" clip-path="none"></g><g class="highcharts-series highcharts-series-7 highcharts-line-series highcharts-color-undefined " transform="translate(67,53) scale(1 1)" width="284" height="523" clip-path="url(#highcharts-mhh1c17-31)"><path fill="none" d="M 5.1274509803922 114.90450666666666 L 10.30669439493 114.08499626666668 L 15.485937809467 113.90573546666667 L 20.665181224005 95.02549120000003 L 25.844424638542 95.29593493333334 L 31.02366805308 95.30479573333332 L 36.202911467617 95.33910293333332 L 41.382154882155 95.34273813333334 L 46.561398296692 87.17383786666667 L 51.74064171123 86.94050346666668 L 62.099128540305 86.82251093333332 L 72.45761536938 80.14404266666665 L 82.816102198455 80.39596959999997 L 93.17458902753 80.70621119999998 L 103.53307585661 80.866728 L 113.89156268568 81.36713599999999 L 124.25004951476 82.27233866666668 L 134.60853634383 83.01107946666667 L 144.96702317291 83.88080106666669 L 155.32551000198 84.46951413333332 L 165.68399683106 85.13505866666671 L 176.04248366013 85.34143200000003 L 186.40097048921 85.80980480000002 L 196.75945731828 86.5222282666667 L 207.11794414736 87.35063733333334 L 217.47643097643 86.97780213333337 L 227.83491780551 87.77444106666667 L 238.19340463458 90.6108816 L 248.55189146366 92.47036213333337 L 258.91037829273 97.81921813333335 L 269.26886512181 97.83122186666665 L 279.62735195088 95.80384053333333 L 289.98583877996 96.26225440000002 L 300.34432560903 97.67013706666668 L 310.70281243811 98.61945440000002 L 321.06129926718 99.62121706666667 L 331.41978609626 101.03368160000002 L 341.77827292533 101.76518986666667 L 352.13675975441 102.20289066666666 L 362.49524658348 103.55215573333334 L 372.85373341256 105.11498880000002 L 383.21222024163 106.554528 L 393.57070707071 108.07722240000001 L 403.92919389978 109.76959733333337 L 414.28768072886 111.19296746666669 L 424.64616755793 112.5887328 L 435.00465438701 114.15008906666665 L 445.36314121608 114.98610933333336 L 455.72162804516 115.87037173333331 L 466.08011487423 116.94313440000002 L 476.43860170331 118.03085440000001 L 486.79708853238 119.12012693333335 L 497.15557536146 120.61767786666667 L 507.51406219053 122.59318186666667 L 517.87254901961 129.57098613333335" class="highcharts-graph" stroke="#5cb85c" stroke-width="2" stroke-linejoin="round" stroke-linecap="round"></path></g><g class="highcharts-markers highcharts-series-7 highcharts-line-series highcharts-color-undefined " transform="translate(67,53) scale(1 1)" width="284" height="523" clip-path="none"></g><g class="highcharts-series highcharts-series-8 highcharts-line-series highcharts-color-undefined " transform="translate(67,53) scale(1 1)" width="284" height="523" clip-path="url(#highcharts-mhh1c17-31)"><path fill="none" d="M 5.1274509803922 114.82468373333333 L 10.30669439493 114.01797226666667 L 15.485937809467 113.85234346666667 L 20.665181224005 94.95407466666668 L 25.844424638542 95.39688746666667 L 31.02366805308 95.18877226666666 L 36.202911467617 95.45421760000002 L 41.382154882155 95.48019413333336 L 46.561398296692 87.00707306666666 L 51.74064171123 86.78013813333334 L 62.099128540305 86.77816906666669 L 72.45761536938 79.82418293333333 L 82.816102198455 80.03070773333334 L 93.17458902753 80.0673626666667 L 103.53307585661 80.18145493333333 L 113.89156268568 80.47658773333333 L 124.25004951476 81.19654666666668 L 134.60853634383 81.64522880000004 L 144.96702317291 82.52543946666668 L 155.32551000198 82.67164266666668 L 165.68399683106 83.2064336 L 176.04248366013 83.35381066666665 L 186.40097048921 83.58093493333334 L 196.75945731828 83.91794826666668 L 207.11794414736 84.11565013333336 L 217.47643097643 83.48195146666666 L 227.83491780551 83.93695733333334 L 238.19340463458 86.30536586666668 L 248.55189146366 87.75512906666668 L 258.91037829273 92.65397760000002 L 269.26886512181 92.4119717333333 L 279.62735195088 90.0551882666667 L 289.98583877996 90.26663573333332 L 300.34432560903 91.5756864 L 310.70281243811 92.38304160000001 L 321.06129926718 93.08171946666664 L 331.41978609626 94.18519200000003 L 341.77827292533 95.14586933333334 L 352.13675975441 95.91520640000002 L 362.49524658348 97.32823893333338 L 372.85373341256 98.73108533333334 L 383.21222024163 100.25457493333334 L 393.57070707071 101.93498400000001 L 403.92919389978 103.66363520000002 L 414.28768072886 105.14675893333333 L 424.64616755793 106.7040634666667 L 435.00465438701 108.41408426666669 L 445.36314121608 109.51225546666669 L 455.72162804516 110.49512266666667 L 466.08011487423 111.67440426666667 L 476.43860170331 112.85376160000001 L 486.79708853238 113.9270544 L 497.15557536146 115.36080000000001 L 507.51406219053 116.90382880000001 L 517.87254901961 123.14872373333336" class="highcharts-graph" stroke="#5cb85c" stroke-width="2" stroke-linejoin="round" stroke-linecap="round"></path></g><g class="highcharts-markers highcharts-series-8 highcharts-line-series highcharts-color-undefined " transform="translate(67,53) scale(1 1)" width="284" height="523" clip-path="none"></g><g class="highcharts-series highcharts-series-9 highcharts-line-series highcharts-color-undefined " transform="translate(67,53) scale(1 1)" width="284" height="523" clip-path="url(#highcharts-mhh1c17-31)"><path fill="none" d="M 5.1274509803922 101.64208533333334 L 10.30669439493 100.79788586666669 L 15.485937809467 100.21738986666668 L 20.665181224005 80.16767146666669 L 25.844424638542 81.05382720000003 L 31.02366805308 81.03921066666666 L 36.202911467617 81.27860373333334 L 41.382154882155 81.34911146666667 L 46.561398296692 72.06617386666667 L 51.74064171123 72.31132266666671 L 62.099128540305 72.26202026666667 L 72.45761536938 64.80819413333336 L 82.816102198455 64.78732960000005 L 93.17458902753 64.6877024 L 103.53307585661 64.42801280000003 L 113.89156268568 64.91384213333336 L 124.25004951476 65.1678896 L 134.60853634383 66.07275146666666 L 144.96702317291 67.08189813333334 L 155.32551000198 68.33615573333336 L 165.68399683106 68.37500693333334 L 176.04248366013 68.66226346666664 L 186.40097048921 69.70518720000004 L 196.75945731828 69.98949013333336 L 207.11794414736 70.01622400000005 L 217.47643097643 69.7490368 L 227.83491780551 69.95332746666665 L 238.19340463458 71.23091093333332 L 248.55189146366 71.42793119999999 L 258.91037829273 72.10267733333333 L 269.26886512181 74.0908666666667 L 279.62735195088 75.76396746666668 L 289.98583877996 76.31405653333337 L 300.34432560903 76.25407573333337 L 310.70281243811 77.32407413333334 L 321.06129926718 78.96975946666666 L 331.41978609626 81.34896000000003 L 341.77827292533 83.13865226666664 L 352.13675975441 84.97730613333331 L 362.49524658348 88.0628336 L 372.85373341256 89.91421066666666 L 383.21222024163 91.92337813333333 L 393.57070707071 99.02296160000003 L 403.92919389978 95.34803946666665 L 414.28768072886 95.8715082666667 L 424.64616755793 96.96892213333334 L 435.00465438701 98.5874570666667 L 445.36314121608 100.21632960000002 L 455.72162804516 101.63295946666668 L 466.08011487423 102.88316533333335 L 476.43860170331 103.61630186666667 L 486.79708853238 104.53407626666666 L 497.15557536146 105.7060496 L 507.51406219053 107.79753920000002 L 517.87254901961 113.06206613333333" class="highcharts-graph" stroke="#5cb85c" stroke-width="2" stroke-linejoin="round" stroke-linecap="round"></path></g><g class="highcharts-markers highcharts-series-9 highcharts-line-series highcharts-color-undefined " transform="translate(67,53) scale(1 1)" width="284" height="523" clip-path="none"></g><g class="highcharts-series highcharts-series-10 highcharts-line-series highcharts-color-undefined " transform="translate(67,53) scale(1 1)" width="284" height="523" clip-path="url(#highcharts-mhh1c17-31)"><path fill="none" d="M 5.1274509803922 101.53075733333333 L 10.30669439493 100.74828053333331 L 15.485937809467 100.09235413333334 L 20.665181224005 79.87943039999999 L 25.844424638542 80.64971413333333 L 31.02366805308 80.81738773333336 L 36.202911467617 80.9626442666667 L 41.382154882155 81.27511999999999 L 46.561398296692 71.9662816 L 51.74064171123 72.00244426666669 L 62.099128540305 72.05742666666666 L 72.45761536938 64.78316426666666 L 82.816102198455 64.79744000000002 L 93.17458902753 64.72140373333337 L 103.53307585661 64.58561386666665 L 113.89156268568 64.91418293333334 L 124.25004951476 65.16258826666666 L 134.60853634383 65.91178026666665 L 144.96702317291 66.94497226666667 L 155.32551000198 68.11043253333338 L 165.68399683106 68.38276960000002 L 176.04248366013 68.72065386666671 L 186.40097048921 69.35912373333332 L 196.75945731828 69.39040160000002 L 207.11794414736 68.81683520000001 L 217.47643097643 69.15801386666669 L 227.83491780551 69.45254079999998 L 238.19340463458 70.02921226666669 L 248.55189146366 70.82800959999997 L 258.91037829273 71.65437386666667 L 269.26886512181 72.8964762666667 L 279.62735195088 74.09499413333336 L 289.98583877996 75.12511893333334 L 300.34432560903 74.57760480000002 L 310.70281243811 75.68675733333333 L 321.06129926718 77.16510986666671 L 331.41978609626 78.83688533333336 L 341.77827292533 80.33731413333336 L 352.13675975441 82.24102293333334 L 362.49524658348 84.28794346666669 L 372.85373341256 86.28154773333333 L 383.21222024163 88.42014346666667 L 393.57070707071 95.94871840000002 L 403.92919389978 92.93347146666665 L 414.28768072886 93.45213120000003 L 424.64616755793 94.66742400000001 L 435.00465438701 96.02411093333333 L 445.36314121608 97.71970453333333 L 455.72162804516 99.0753690666667 L 466.08011487423 99.71016586666667 L 476.43860170331 100.32534773333336 L 486.79708853238 101.26360800000003 L 497.15557536146 102.54876480000001 L 507.51406219053 104.11920906666668 L 517.87254901961 109.79754293333335" class="highcharts-graph" stroke="#5cb85c" stroke-width="2" stroke-linejoin="round" stroke-linecap="round"></path></g><g class="highcharts-markers highcharts-series-10 highcharts-line-series highcharts-color-undefined " transform="translate(67,53) scale(1 1)" width="284" height="523" clip-path="none"></g><g class="highcharts-series highcharts-series-11 highcharts-line-series highcharts-color-undefined " transform="translate(67,53) scale(1 1)" width="284" height="523" clip-path="url(#highcharts-mhh1c17-31)"><path fill="none" d="M 5.1274509803922 107.64493653333335 L 10.30669439493 106.72000533333335 L 15.485937809467 106.41487573333336 L 20.665181224005 86.74692906666667 L 25.844424638542 86.97465920000002 L 31.02366805308 86.78093333333337 L 36.202911467617 86.78464426666667 L 41.382154882155 86.90793813333335 L 46.561398296692 77.8584864 L 51.74064171123 77.74026666666668 L 62.099128540305 77.53582453333331 L 72.45761536938 70.35335093333333 L 82.816102198455 70.52765120000001 L 93.17458902753 70.70210293333332 L 103.53307585661 70.62996693333335 L 113.89156268568 71.04006293333333 L 124.25004951476 71.52941386666669 L 134.60853634383 72.2504709333333 L 144.96702317291 72.83157280000006 L 155.32551000198 73.23443626666668 L 165.68399683106 73.64021546666669 L 176.04248366013 73.85249600000003 L 186.40097048921 74.23756213333331 L 196.75945731828 74.59964320000003 L 207.11794414736 75.10565546666669 L 217.47643097643 73.97075360000002 L 227.83491780551 74.25327680000004 L 238.19340463458 76.6517136 L 248.55189146366 77.76495573333332 L 258.91037829273 83.41485173333334 L 269.26886512181 83.30098666666669 L 279.62735195088 80.58950613333334 L 289.98583877996 80.70783946666666 L 300.34432560903 81.74780959999998 L 310.70281243811 82.7665744 L 321.06129926718 84.07395893333336 L 331.41978609626 85.5585216 L 341.77827292533 86.685888 L 352.13675975441 87.48873706666666 L 362.49524658348 89.368552 L 372.85373341256 91.46432053333336 L 383.21222024163 93.50317546666668 L 393.57070707071 95.63309973333338 L 403.92919389978 97.57558400000002 L 414.28768072886 99.21850506666667 L 424.64616755793 100.83908480000002 L 435.00465438701 102.42641760000001 L 445.36314121608 103.49421973333332 L 455.72162804516 104.3922656 L 466.08011487423 105.31079733333334 L 476.43860170331 106.29498986666667 L 486.79708853238 107.00718613333333 L 497.15557536146 108.1366352 L 507.51406219053 109.95794613333334 L 517.87254901961 116.99152800000002" class="highcharts-graph" stroke="#5cb85c" stroke-width="2" stroke-linejoin="round" stroke-linecap="round"></path></g><g class="highcharts-markers highcharts-series-11 highcharts-line-series highcharts-color-undefined " transform="translate(67,53) scale(1 1)" width="284" height="523" clip-path="none"></g><g class="highcharts-series highcharts-series-12 highcharts-line-series highcharts-color-undefined " transform="translate(67,53) scale(1 1)" width="284" height="523" clip-path="url(#highcharts-mhh1c17-31)"><path fill="none" d="M 5.1274509803922 102.76922453333333 L 10.30669439493 101.91798186666668 L 15.485937809467 101.34081813333333 L 20.665181224005 81.15349226666669 L 25.844424638542 82.2323136 L 31.02366805308 82.33834026666668 L 36.202911467617 82.61378240000002 L 41.382154882155 82.66263040000001 L 46.561398296692 73.76669013333336 L 51.74064171123 73.78399519999999 L 62.099128540305 73.9075162666667 L 72.45761536938 66.73166933333334 L 82.816102198455 66.7526474666667 L 93.17458902753 66.9227066666667 L 103.53307585661 66.75071626666667 L 113.89156268568 67.15142133333336 L 124.25004951476 67.69988213333335 L 134.60853634383 69.1080298666667 L 144.96702317291 71.6571002666667 L 155.32551000198 76.45499626666665 L 165.68399683106 75.66816480000003 L 176.04248366013 74.94998559999999 L 186.40097048921 75.53089813333335 L 196.75945731828 76.54405866666667 L 207.11794414736 75.7496538666667 L 217.47643097643 75.58890986666668 L 227.83491780551 75.5684618666667 L 238.19340463458 76.321024 L 248.55189146366 77.31070720000002 L 258.91037829273 78.31928586666669 L 269.26886512181 82.2783594666667 L 279.62735195088 85.15880106666665 L 289.98583877996 85.34423413333334 L 300.34432560903 83.81680639999999 L 310.70281243811 85.45552426666669 L 321.06129926718 87.60161760000003 L 331.41978609626 89.02794133333336 L 341.77827292533 89.49002826666666 L 352.13675975441 89.90720533333334 L 362.49524658348 91.59128746666664 L 372.85373341256 93.84401333333335 L 383.21222024163 95.78278666666671 L 393.57070707071 103.31174026666667 L 403.92919389978 102.74911733333334 L 414.28768072886 102.89668373333336 L 424.64616755793 103.41023146666669 L 435.00465438701 104.73723093333334 L 445.36314121608 107.47385493333334 L 455.72162804516 108.96621813333334 L 466.08011487423 110.0303472 L 476.43860170331 110.76670239999999 L 486.79708853238 111.59957973333334 L 497.15557536146 113.0130288 L 507.51406219053 114.76072693333333 L 517.87254901961 120.367152" class="highcharts-graph" stroke="#5cb85c" stroke-width="2" stroke-linejoin="round" stroke-linecap="round"></path></g><g class="highcharts-markers highcharts-series-12 highcharts-line-series highcharts-color-undefined " transform="translate(67,53) scale(1 1)" width="284" height="523" clip-path="none"></g><g class="highcharts-series highcharts-series-13 highcharts-line-series highcharts-color-undefined " transform="translate(67,53) scale(1 1)" width="284" height="523" clip-path="url(#highcharts-mhh1c17-31)"><path fill="none" d="M 5.1274509803922 116.77527146666668 L 10.30669439493 115.8158058666667 L 15.485937809467 115.58754560000003 L 20.665181224005 97.03053119999998 L 25.844424638542 97.26969706666668 L 31.02366805308 97.18207360000002 L 36.202911467617 97.29870293333335 L 41.382154882155 97.25099093333336 L 46.561398296692 89.17986239999999 L 51.74064171123 89.11056640000001 L 62.099128540305 88.95107199999998 L 72.45761536938 82.32860853333332 L 82.816102198455 82.52411413333337 L 93.17458902753 82.721248 L 103.53307585661 82.76392373333331 L 113.89156268568 83.26823200000001 L 124.25004951476 84.02707999999998 L 134.60853634383 85.0157786666667 L 144.96702317291 85.7909472 L 155.32551000198 85.93843786666667 L 165.68399683106 86.60572426666667 L 176.04248366013 86.99018453333335 L 186.40097048921 87.567992 L 196.75945731828 88.18741493333334 L 207.11794414736 88.61670933333335 L 217.47643097643 87.92522613333335 L 227.83491780551 88.37724053333335 L 238.19340463458 91.26991306666667 L 248.55189146366 92.54302826666665 L 258.91037829273 97.99223093333333 L 269.26886512181 98.037936 L 279.62735195088 95.58834133333335 L 289.98583877996 95.93671466666666 L 300.34432560903 96.843432 L 310.70281243811 97.89105120000002 L 321.06129926718 98.9142464 L 331.41978609626 100.28520906666665 L 341.77827292533 101.0428832 L 352.13675975441 101.69627253333337 L 362.49524658348 103.24145973333333 L 372.85373341256 104.77623360000001 L 383.21222024163 106.38022773333333 L 393.57070707071 108.04408906666669 L 403.92919389978 109.74373440000002 L 414.28768072886 111.33625493333332 L 424.64616755793 112.92305760000002 L 435.00465438701 114.51811520000001 L 445.36314121608 115.50692746666667 L 455.72162804516 116.62781866666668 L 466.08011487423 117.69501493333334 L 476.43860170331 118.77485866666669 L 486.79708853238 119.8623136 L 497.15557536146 121.10214400000001 L 507.51406219053 122.99612106666666 L 517.87254901961 129.64471253333335" class="highcharts-graph" stroke="#5cb85c" stroke-width="2" stroke-linejoin="round" stroke-linecap="round"></path></g><g class="highcharts-markers highcharts-series-13 highcharts-line-series highcharts-color-undefined " transform="translate(67,53) scale(1 1)" width="284" height="523" clip-path="none"></g><g class="highcharts-series highcharts-series-14 highcharts-line-series highcharts-color-undefined " transform="translate(67,53) scale(1 1)" width="284" height="523" clip-path="url(#highcharts-mhh1c17-31)"><path fill="none" d="M 5.1274509803922 106.8003584 L 10.30669439493 106.11701653333336 L 15.485937809467 105.63989653333334 L 20.665181224005 85.41000853333335 L 25.844424638542 87.15770666666668 L 31.02366805308 87.36036906666669 L 36.202911467617 87.70525866666665 L 41.382154882155 87.9154944 L 46.561398296692 79.6940352 L 51.74064171123 79.94948373333335 L 62.099128540305 80.03600906666665 L 72.45761536938 75.50299040000002 L 82.816102198455 75.6206042666667 L 93.17458902753 74.64277333333337 L 103.53307585661 74.56787306666666 L 113.89156268568 75.18456960000003 L 124.25004951476 76.04683146666667 L 134.60853634383 79.49981706666671 L 144.96702317291 88.52806346666668 L 155.32551000198 103.02020480000002 L 165.68399683106 101.64015413333334 L 176.04248366013 99.61746826666666 L 186.40097048921 100.03169173333336 L 196.75945731828 103.19810240000001 L 207.11794414736 99.75473493333337 L 217.47643097643 95.85905013333334 L 227.83491780551 93.92035253333336 L 238.19340463458 94.19579466666664 L 248.55189146366 95.64116533333336 L 258.91037829273 97.09388213333332 L 269.26886512181 105.36744586666669 L 279.62735195088 112.10631146666665 L 289.98583877996 111.2204208 L 300.34432560903 107.821168 L 310.70281243811 109.26930293333334 L 321.06129926718 116.39849813333336 L 331.41978609626 117.72368 L 341.77827292533 114.23858346666665 L 352.13675975441 112.57214720000002 L 362.49524658348 113.52593280000002 L 372.85373341256 115.29010293333334 L 383.21222024163 117.1586336 L 393.57070707071 125.07837119999999 L 403.92919389978 128.94671626666667 L 414.28768072886 130.15689706666666 L 424.64616755793 128.3862896 L 435.00465438701 129.9283338666667 L 445.36314121608 135.86563786666667 L 455.72162804516 138.00355199999998 L 466.08011487423 138.13014026666667 L 476.43860170331 137.74507413333333 L 486.79708853238 137.91009706666668 L 497.15557536146 139.61269600000003 L 507.51406219053 141.84096000000002 L 517.87254901961 147.93185119999998" class="highcharts-graph" stroke="#d9534f" stroke-width="2" stroke-linejoin="round" stroke-linecap="round"></path></g><g class="highcharts-markers highcharts-series-14 highcharts-line-series highcharts-color-undefined " transform="translate(67,53) scale(1 1)" width="284" height="523" clip-path="none"></g><g class="highcharts-series highcharts-series-15 highcharts-line-series highcharts-color-undefined " transform="translate(67,53) scale(1 1)" width="284" height="523" clip-path="url(#highcharts-mhh1c17-31)"><path fill="none" d="M 5.1274509803922 139.91029013333335 L 10.30669439493 139.30343893333333 L 15.485937809467 139.18438613333333 L 20.665181224005 123.04409813333334 L 25.844424638542 123.76598826666668 L 31.02366805308 123.73660373333334 L 36.202911467617 123.99038613333335 L 41.382154882155 124.11989013333334 L 46.561398296692 117.76851413333335 L 51.74064171123 117.74053066666667 L 62.099128540305 117.67952746666668 L 72.45761536938 112.98462880000002 L 82.816102198455 113.37393600000001 L 93.17458902753 113.92656213333333 L 103.53307585661 114.53159573333335 L 113.89156268568 115.09285546666669 L 124.25004951476 116.10730346666668 L 134.60853634383 117.34637653333334 L 144.96702317291 118.71843733333336 L 155.32551000198 119.21509653333334 L 165.68399683106 120.12931146666668 L 176.04248366013 120.80742773333336 L 186.40097048921 121.47047306666667 L 196.75945731828 122.44133653333333 L 207.11794414736 123.43291306666669 L 217.47643097643 123.3319984 L 227.83491780551 124.24106346666667 L 238.19340463458 127.57060373333334 L 248.55189146366 129.13430773333332 L 258.91037829273 134.1992016 L 269.26886512181 134.56631893333335 L 279.62735195088 132.5765770666667 L 289.98583877996 132.8729216 L 300.34432560903 133.62548373333334 L 310.70281243811 134.45790666666667 L 321.06129926718 135.41237386666668 L 331.41978609626 136.43776533333335 L 341.77827292533 137.0509024 L 352.13675975441 137.03696746666668 L 362.49524658348 137.98075626666667 L 372.85373341256 139.2079392 L 383.21222024163 140.59556320000002 L 393.57070707071 141.97224373333336 L 403.92919389978 143.38690453333334 L 414.28768072886 144.74491680000003 L 424.64616755793 145.93801973333336 L 435.00465438701 147.6341056 L 445.36314121608 148.59353333333334 L 455.72162804516 149.6127904 L 466.08011487423 150.7464048 L 476.43860170331 152.01698293333334 L 486.79708853238 153.40400106666667 L 497.15557536146 154.90140053333334 L 507.51406219053 157.12898293333333 L 517.87254901961 163.73508800000002" class="highcharts-graph" stroke="#d9534f" stroke-width="2" stroke-linejoin="round" stroke-linecap="round"></path></g><g class="highcharts-markers highcharts-series-15 highcharts-line-series highcharts-color-undefined " transform="translate(67,53) scale(1 1)" width="284" height="523" clip-path="none"></g><g class="highcharts-series highcharts-series-16 highcharts-line-series highcharts-color-undefined " transform="translate(67,53) scale(1 1)" width="284" height="523" clip-path="url(#highcharts-mhh1c17-31)"><path fill="none" d="M 5.1274509803922 102.1134496 L 10.30669439493 101.4009504 L 15.485937809467 100.88338879999998 L 20.665181224005 80.66311893333335 L 25.844424638542 81.71179840000002 L 31.02366805308 81.93793813333335 L 36.202911467617 82.11477546666666 L 41.382154882155 82.10894400000004 L 46.561398296692 73.0920576 L 51.74064171123 73.32804266666668 L 62.099128540305 73.22042560000003 L 72.45761536938 66.36924746666665 L 82.816102198455 66.46054400000003 L 93.17458902753 66.51416320000001 L 103.53307585661 66.15586880000001 L 113.89156268568 66.52166080000003 L 124.25004951476 67.07625600000003 L 134.60853634383 68.32400053333336 L 144.96702317291 69.73430666666667 L 155.32551000198 71.98771413333333 L 165.68399683106 72.37868746666669 L 176.04248366013 72.85527733333333 L 186.40097048921 73.95185813333336 L 196.75945731828 74.23718346666669 L 207.11794414736 73.74544693333334 L 217.47643097643 74.0522048 L 227.83491780551 74.64205386666666 L 238.19340463458 75.68285706666668 L 248.55189146366 76.77428799999998 L 258.91037829273 78.12510559999998 L 269.26886512181 80.08432693333333 L 279.62735195088 82.04445706666667 L 289.98583877996 83.05065013333336 L 300.34432560903 82.46712480000002 L 310.70281243811 83.48126986666668 L 321.06129926718 85.48051626666665 L 331.41978609626 86.98594346666664 L 341.77827292533 87.9466208 L 352.13675975441 89.31625813333335 L 362.49524658348 90.89298826666666 L 372.85373341256 92.76204906666663 L 383.21222024163 94.51334453333334 L 393.57070707071 102.64369653333333 L 403.92919389978 99.12497440000001 L 414.28768072886 99.29991840000005 L 424.64616755793 99.98148053333333 L 435.00465438701 101.21722133333333 L 445.36314121608 103.35093226666669 L 455.72162804516 104.85238346666668 L 466.08011487423 105.63417866666666 L 476.43860170331 106.27923733333336 L 486.79708853238 107.30046346666666 L 497.15557536146 108.8425834666667 L 507.51406219053 110.73974133333334 L 517.87254901961 116.82393013333336" class="highcharts-graph" stroke="#5cb85c" stroke-width="2" stroke-linejoin="round" stroke-linecap="round"></path></g><g class="highcharts-markers highcharts-series-16 highcharts-line-series highcharts-color-undefined " transform="translate(67,53) scale(1 1)" width="284" height="523" clip-path="none"></g><g class="highcharts-series highcharts-series-17 highcharts-line-series highcharts-color-undefined " transform="translate(67,53) scale(1 1)" width="284" height="523" clip-path="url(#highcharts-mhh1c17-31)"><path fill="none" d="M 5.1274509803922 112.2535370666667 L 10.30669439493 111.38237653333334 L 15.485937809467 111.21712640000001 L 20.665181224005 91.80326506666665 L 25.844424638542 92.151184 L 31.02366805308 91.98404053333334 L 36.202911467617 92.20609066666665 L 41.382154882155 92.34945386666669 L 46.561398296692 83.86262506666668 L 51.74064171123 83.45605066666667 L 62.099128540305 83.26838346666665 L 72.45761536938 76.58741599999999 L 82.816102198455 76.66356586666669 L 93.17458902753 76.98111573333333 L 103.53307585661 77.12493333333333 L 113.89156268568 77.51605813333336 L 124.25004951476 78.17092426666667 L 134.60853634383 79.19688373333332 L 144.96702317291 80.12545013333337 L 155.32551000198 80.43440426666666 L 165.68399683106 81.07048853333339 L 176.04248366013 81.55434879999999 L 186.40097048921 81.97754666666668 L 196.75945731828 82.60583039999997 L 207.11794414736 83.28148533333334 L 217.47643097643 82.69595306666665 L 227.83491780551 83.39811466666669 L 238.19340463458 86.59462933333336 L 248.55189146366 88.10592586666667 L 258.91037829273 94.20291360000002 L 269.26886512181 94.31719520000004 L 279.62735195088 91.73616533333336 L 289.98583877996 92.13013013333332 L 300.34432560903 93.14658506666666 L 310.70281243811 94.16781120000002 L 321.06129926718 95.33300640000002 L 331.41978609626 96.65110720000004 L 341.77827292533 97.35304159999998 L 352.13675975441 97.80350346666668 L 362.49524658348 99.20918986666669 L 372.85373341256 100.91114506666668 L 383.21222024163 102.4244864 L 393.57070707071 104.23186239999998 L 403.92919389978 105.94195893333332 L 414.28768072886 107.57851840000001 L 424.64616755793 109.01616426666666 L 435.00465438701 110.60198240000003 L 445.36314121608 111.64142240000001 L 455.72162804516 112.78435200000001 L 466.08011487423 113.74215146666666 L 476.43860170331 114.80094133333333 L 486.79708853238 115.9116842666667 L 497.15557536146 117.39283893333334 L 507.51406219053 119.34342666666669 L 517.87254901961 126.70095786666667" class="highcharts-graph" stroke="#5cb85c" stroke-width="2" stroke-linejoin="round" stroke-linecap="round"></path></g><g class="highcharts-markers highcharts-series-17 highcharts-line-series highcharts-color-undefined " transform="translate(67,53) scale(1 1)" width="284" height="523" clip-path="none"></g><g class="highcharts-series highcharts-series-18 highcharts-line-series highcharts-color-undefined " transform="translate(67,53) scale(1 1)" width="284" height="523" clip-path="url(#highcharts-mhh1c17-31)"><path fill="none" d="M 5.1274509803922 98.84426880000001 L 10.30669439493 98.06368533333332 L 15.485937809467 97.6132992 L 20.665181224005 78.0918208 L 25.844424638542 78.71313706666666 L 31.02366805308 78.83105386666668 L 36.202911467617 78.93889813333337 L 41.382154882155 79.09187946666668 L 46.561398296692 69.24101760000002 L 51.74064171123 69.37048373333334 L 62.099128540305 69.36537173333332 L 72.45761536938 61.1773109333333 L 82.816102198455 61.20135626666669 L 93.17458902753 61.08643093333336 L 103.53307585661 61.057993066666654 L 113.89156268568 61.46502186666666 L 124.25004951476 61.75898079999999 L 134.60853634383 62.36825546666671 L 144.96702317291 63.25088960000005 L 155.32551000198 64.5057152 L 165.68399683106 64.78899573333337 L 176.04248366013 65.27516586666667 L 186.40097048921 65.78367733333332 L 196.75945731828 65.99713173333336 L 207.11794414736 65.64394933333335 L 217.47643097643 66.11273866666667 L 227.83491780551 66.72012000000001 L 238.19340463458 67.58154880000001 L 248.55189146366 68.6293952 L 258.91037829273 69.70992053333336 L 269.26886512181 71.20928906666666 L 279.62735195088 73.01321919999998 L 289.98583877996 74.24184106666667 L 300.34432560903 74.07140320000002 L 310.70281243811 75.0489312 L 321.06129926718 76.80848160000002 L 331.41978609626 78.55004533333334 L 341.77827292533 79.89275946666669 L 352.13675975441 81.34240906666668 L 362.49524658348 82.94894026666665 L 372.85373341256 84.73374773333333 L 383.21222024163 86.72201280000002 L 393.57070707071 94.01005866666665 L 403.92919389978 90.6197424 L 414.28768072886 90.95596053333335 L 424.64616755793 91.96847733333331 L 435.00465438701 93.0472986666667 L 445.36314121608 94.71028906666666 L 455.72162804516 96.02888213333333 L 466.08011487423 96.63940640000004 L 476.43860170331 97.36644640000003 L 486.79708853238 98.16944693333332 L 497.15557536146 98.89171573333334 L 507.51406219053 100.43451733333333 L 517.87254901961 105.71956800000001" class="highcharts-graph" stroke="#5cb85c" stroke-width="2" stroke-linejoin="round" stroke-linecap="round"></path></g><g class="highcharts-markers highcharts-series-18 highcharts-line-series highcharts-color-undefined " transform="translate(67,53) scale(1 1)" width="284" height="523" clip-path="none"></g><g class="highcharts-series highcharts-series-19 highcharts-line-series highcharts-color-undefined " transform="translate(67,53) scale(1 1)" width="284" height="523" clip-path="url(#highcharts-mhh1c17-31)"><path fill="none" d="M 5.1274509803922 104.16521706666666 L 10.30669439493 103.26959466666668 L 15.485937809467 103.06253973333332 L 20.665181224005 83.74167893333336 L 25.844424638542 83.94047893333334 L 31.02366805308 83.81733653333336 L 36.202911467617 83.8747424 L 41.382154882155 83.98841813333334 L 46.561398296692 74.3005344 L 51.74064171123 74.09987893333337 L 62.099128540305 73.91236320000002 L 72.45761536938 66.06763946666666 L 82.816102198455 66.1962346666667 L 93.17458902753 66.41555840000004 L 103.53307585661 66.49401813333336 L 113.89156268568 66.86162773333336 L 124.25004951476 67.39596426666668 L 134.60853634383 68.0749514666667 L 144.96702317291 68.94251466666665 L 155.32551000198 69.04433813333333 L 165.68399683106 69.3736266666667 L 176.04248366013 69.60699893333336 L 186.40097048921 70.11108000000002 L 196.75945731828 70.72595893333332 L 207.11794414736 71.1657424 L 217.47643097643 70.3624010666667 L 227.83491780551 71.12333173333337 L 238.19340463458 73.66978933333334 L 248.55189146366 75.0535888 L 258.91037829273 80.88240480000002 L 269.26886512181 80.8696816 L 279.62735195088 78.50365866666667 L 289.98583877996 79.05965493333335 L 300.34432560903 80.2025088 L 310.70281243811 81.55325066666668 L 321.06129926718 82.83511306666668 L 331.41978609626 84.36564586666665 L 341.77827292533 85.52637279999999 L 352.13675975441 86.35338080000002 L 362.49524658348 88.05855466666668 L 372.85373341256 89.6758778666667 L 383.21222024163 91.39903840000002 L 393.57070707071 93.07327519999998 L 403.92919389978 94.68908373333335 L 414.28768072886 96.2211690666667 L 424.64616755793 97.72731573333331 L 435.00465438701 98.98051306666667 L 445.36314121608 99.96542506666668 L 455.72162804516 100.85230026666665 L 466.08011487423 101.72338506666668 L 476.43860170331 102.65274666666667 L 486.79708853238 103.35956586666668 L 497.15557536146 104.42214240000001 L 507.51406219053 105.80026186666669 L 517.87254901961 112.31900853333335" class="highcharts-graph" stroke="#5cb85c" stroke-width="2" stroke-linejoin="round" stroke-linecap="round"></path></g><g class="highcharts-markers highcharts-series-19 highcharts-line-series highcharts-color-undefined " transform="translate(67,53) scale(1 1)" width="284" height="523" clip-path="none"></g><g class="highcharts-series highcharts-series-20 highcharts-line-series highcharts-color-undefined " transform="translate(67,53) scale(1 1)" width="284" height="523" clip-path="url(#highcharts-mhh1c17-31)"><path fill="none" d="M 5.1274509803922 102.0280224 L 10.30669439493 101.09415466666667 L 15.485937809467 100.46132693333334 L 20.665181224005 80.4806016 L 25.844424638542 81.26724373333334 L 31.02366805308 81.37046826666668 L 36.202911467617 81.49308053333331 L 41.382154882155 81.69559146666668 L 46.561398296692 72.47036266666669 L 51.74064171123 72.58918826666667 L 62.099128540305 72.69033013333336 L 72.45761536938 65.49350506666667 L 82.816102198455 65.65212853333338 L 93.17458902753 65.49199040000005 L 103.53307585661 65.42409546666667 L 113.89156268568 66.04571466666667 L 124.25004951476 66.38068320000002 L 134.60853634383 67.52974719999997 L 144.96702317291 68.63393919999999 L 155.32551000198 70.28303253333334 L 165.68399683106 70.66949973333331 L 176.04248366013 71.40816480000001 L 186.40097048921 72.3133296 L 196.75945731828 73.04343679999997 L 207.11794414736 73.31126773333335 L 217.47643097643 73.73537440000001 L 227.83491780551 74.94415413333337 L 238.19340463458 76.14452746666669 L 248.55189146366 77.01292373333334 L 258.91037829273 78.51801013333335 L 269.26886512181 80.42062080000002 L 279.62735195088 82.63074666666665 L 289.98583877996 83.96853813333331 L 300.34432560903 83.51042720000001 L 310.70281243811 84.41456960000005 L 321.06129926718 86.137768 L 331.41978609626 87.90595200000001 L 341.77827292533 89.82567840000002 L 352.13675975441 90.91449653333333 L 362.49524658348 92.24210186666667 L 372.85373341256 93.6916378666667 L 383.21222024163 95.57959413333333 L 393.57070707071 102.67766293333335 L 403.92919389978 99.09059146666667 L 414.28768072886 99.36251200000001 L 424.64616755793 100.0879994666667 L 435.00465438701 101.30446613333334 L 445.36314121608 102.75820533333336 L 455.72162804516 103.9063984 L 466.08011487423 104.95416906666665 L 476.43860170331 105.70680693333333 L 486.79708853238 106.51355626666668 L 497.15557536146 107.90644373333333 L 507.51406219053 110.21502293333333 L 517.87254901961 116.46476480000001" class="highcharts-graph" stroke="#5cb85c" stroke-width="2" stroke-linejoin="round" stroke-linecap="round"></path></g><g class="highcharts-markers highcharts-series-20 highcharts-line-series highcharts-color-undefined " transform="translate(67,53) scale(1 1)" width="284" height="523" clip-path="none"></g><g class="highcharts-series highcharts-series-21 highcharts-line-series highcharts-color-undefined " transform="translate(67,53) scale(1 1)" width="284" height="523" clip-path="url(#highcharts-mhh1c17-31)"><path fill="none" d="M 5.1274509803922 109.32727679999999 L 10.30669439493 108.40620799999999 L 15.485937809467 108.15977173333334 L 20.665181224005 88.52757119999998 L 25.844424638542 88.95288959999999 L 31.02366805308 88.98121386666668 L 36.202911467617 89.1416170666667 L 41.382154882155 89.19288853333333 L 46.561398296692 80.45879040000003 L 51.74064171123 80.34678080000003 L 62.099128540305 80.15631146666666 L 72.45761536938 73.0929664 L 82.816102198455 73.46356746666672 L 93.17458902753 73.54713920000003 L 103.53307585661 73.83481226666669 L 113.89156268568 74.39645066666665 L 124.25004951476 75.20732746666664 L 134.60853634383 76.18258346666664 L 144.96702317291 77.16234559999998 L 155.32551000198 77.64306293333334 L 165.68399683106 78.39070240000001 L 176.04248366013 78.79621653333336 L 186.40097048921 79.46308640000004 L 196.75945731828 80.22678133333335 L 207.11794414736 81.04826079999998 L 217.47643097643 80.64990346666667 L 227.83491780551 81.59070080000001 L 238.19340463458 84.7395413333333 L 248.55189146366 86.82663839999998 L 258.91037829273 92.34040373333335 L 269.26886512181 92.44355253333333 L 279.62735195088 90.46960106666666 L 289.98583877996 91.08819093333335 L 300.34432560903 92.60774240000003 L 310.70281243811 93.59784213333333 L 321.06129926718 94.6722330666667 L 331.41978609626 96.09848106666666 L 341.77827292533 96.95752426666667 L 352.13675975441 97.32687573333334 L 362.49524658348 98.89663839999997 L 372.85373341256 100.38108746666668 L 383.21222024163 101.94759360000003 L 393.57070707071 103.62307999999999 L 403.92919389978 105.30110346666669 L 414.28768072886 106.69353653333334 L 424.64616755793 108.00576800000002 L 435.00465438701 109.6663728 L 445.36314121608 110.42601600000003 L 455.72162804516 111.13404693333337 L 466.08011487423 112.04898133333336 L 476.43860170331 112.9970112 L 486.79708853238 114.16879520000003 L 497.15557536146 115.53680426666668 L 507.51406219053 117.53779253333335 L 517.87254901961 125.07863626666668" class="highcharts-graph" stroke="#5cb85c" stroke-width="2" stroke-linejoin="round" stroke-linecap="round"></path></g><g class="highcharts-markers highcharts-series-21 highcharts-line-series highcharts-color-undefined " transform="translate(67,53) scale(1 1)" width="284" height="523" clip-path="none"></g><g class="highcharts-series highcharts-series-22 highcharts-line-series highcharts-color-undefined " transform="translate(67,53) scale(1 1)" width="284" height="523" clip-path="url(#highcharts-mhh1c17-31)"><path fill="none" d="M 5.1274509803922 99.26898133333336 L 10.30669439493 98.48968533333334 L 15.485937809467 97.96311146666665 L 20.665181224005 78.24843733333336 L 25.844424638542 78.98782186666668 L 31.02366805308 79.1726112 L 36.202911467617 79.27015573333333 L 41.382154882155 79.39632746666666 L 46.561398296692 69.67413653333335 L 51.74064171123 69.64713760000001 L 62.099128540305 69.6592928 L 72.45761536938 61.70191573333332 L 82.816102198455 61.79139466666666 L 93.17458902753 61.71138240000002 L 103.53307585661 61.70763359999998 L 113.89156268568 62.24424213333336 L 124.25004951476 62.61730453333337 L 134.60853634383 63.49236533333337 L 144.96702317291 64.36314720000004 L 155.32551000198 65.50717493333335 L 165.68399683106 66.08505813333332 L 176.04248366013 66.86049173333336 L 186.40097048921 67.55784426666665 L 196.75945731828 67.8883066666667 L 207.11794414736 67.7658458666667 L 217.47643097643 68.48735733333336 L 227.83491780551 69.36506879999999 L 238.19340463458 70.42586560000004 L 248.55189146366 71.75267573333335 L 258.91037829273 72.97539040000001 L 269.26886512181 74.59865866666667 L 279.62735195088 76.54458880000001 L 289.98583877996 77.90210880000001 L 300.34432560903 77.69168373333332 L 310.70281243811 78.79068800000002 L 321.06129926718 80.45428426666666 L 331.41978609626 81.9808032 L 341.77827292533 83.30011573333337 L 352.13675975441 84.65699200000003 L 362.49524658348 86.16499413333335 L 372.85373341256 87.77709173333335 L 383.21222024163 89.34636213333334 L 393.57070707071 96.59991146666664 L 403.92919389978 92.86042666666668 L 414.28768072886 93.04449653333333 L 424.64616755793 93.79717226666668 L 435.00465438701 94.76549866666667 L 445.36314121608 96.46419733333335 L 455.72162804516 97.76393279999999 L 466.08011487423 98.24162079999999 L 476.43860170331 99.09930080000001 L 486.79708853238 99.86375306666667 L 497.15557536146 100.79928693333332 L 507.51406219053 102.63903893333335 L 517.87254901961 108.481752" class="highcharts-graph" stroke="#5cb85c" stroke-width="2" stroke-linejoin="round" stroke-linecap="round"></path></g><g class="highcharts-markers highcharts-series-22 highcharts-line-series highcharts-color-undefined " transform="translate(67,53) scale(1 1)" width="284" height="523" clip-path="none"></g><g class="highcharts-series highcharts-series-23 highcharts-line-series highcharts-color-undefined " transform="translate(67,53) scale(1 1)" width="284" height="523" clip-path="url(#highcharts-mhh1c17-31)"><path fill="none" d="M 5.1274509803922 104.27912 L 10.30669439493 103.57063466666668 L 15.485937809467 103.33207466666667 L 20.665181224005 83.75493226666669 L 25.844424638542 84.01659093333336 L 31.02366805308 83.8002208 L 36.202911467617 83.87133440000002 L 41.382154882155 83.98894826666665 L 46.561398296692 74.49191253333333 L 51.74064171123 74.40447839999999 L 62.099128540305 74.09522133333334 L 72.45761536938 66.41764106666668 L 82.816102198455 66.54297973333334 L 93.17458902753 66.73038186666668 L 103.53307585661 66.85458453333334 L 113.89156268568 67.30383466666666 L 124.25004951476 67.92556746666665 L 134.60853634383 68.87522560000002 L 144.96702317291 69.72324960000003 L 155.32551000198 70.06946453333336 L 165.68399683106 70.61133653333334 L 176.04248366013 70.98129386666668 L 186.40097048921 71.65259413333334 L 196.75945731828 72.35861813333335 L 207.11794414736 73.18286186666663 L 217.47643097643 72.60868960000002 L 227.83491780551 73.65093173333332 L 238.19340463458 76.53909813333337 L 248.55189146366 78.15418720000002 L 258.91037829273 84.31024693333333 L 269.26886512181 84.48204799999999 L 279.62735195088 82.18145866666669 L 289.98583877996 82.76721813333333 L 300.34432560903 83.97664160000002 L 310.70281243811 85.29595413333331 L 321.06129926718 86.70936533333332 L 331.41978609626 88.19612426666669 L 341.77827292533 89.17024426666669 L 352.13675975441 89.67281066666669 L 362.49524658348 91.01912213333333 L 372.85373341256 92.60338773333334 L 383.21222024163 94.20302720000001 L 393.57070707071 95.71527040000004 L 403.92919389978 97.27783840000001 L 414.28768072886 98.66909759999999 L 424.64616755793 99.98647893333336 L 435.00465438701 101.2036650666667 L 445.36314121608 101.95524266666666 L 455.72162804516 102.88922400000001 L 466.08011487423 103.8626624 L 476.43860170331 104.74275946666668 L 486.79708853238 105.6119888 L 497.15557536146 106.93717066666667 L 507.51406219053 108.61186186666666 L 517.87254901961 115.71121813333335" class="highcharts-graph" stroke="#5cb85c" stroke-width="2" stroke-linejoin="round" stroke-linecap="round"></path></g><g class="highcharts-markers highcharts-series-23 highcharts-line-series highcharts-color-undefined " transform="translate(67,53) scale(1 1)" width="284" height="523" clip-path="none"></g></g><text x="330" text-anchor="middle" class="highcharts-title" style="color:#333333;font-size:18px;fill:#333333;width:536px;" y="24"><tspan>FastQC: Mean Quality Scores</tspan></text><g class="highcharts-axis-labels highcharts-xaxis-labels "><text x="170.53307585660528" style="color:#666666;cursor:default;font-size:11px;fill:#666666;width:121px;text-overflow:clip;" text-anchor="middle" transform="translate(0,0)" y="356" opacity="1"><tspan>20</tspan></text><text x="274.11794414735596" style="color:#666666;cursor:default;font-size:11px;fill:#666666;width:121px;text-overflow:clip;" text-anchor="middle" transform="translate(0,0)" y="356" opacity="1"><tspan>40</tspan></text><text x="377.7028124381066" style="color:#666666;cursor:default;font-size:11px;fill:#666666;width:121px;text-overflow:clip;" text-anchor="middle" transform="translate(0,0)" y="356" opacity="1"><tspan>60</tspan></text><text x="481.2876807288572" style="color:#666666;cursor:default;font-size:11px;fill:#666666;width:121px;text-overflow:clip;" text-anchor="middle" transform="translate(0,0)" y="356" opacity="1"><tspan>80</tspan></text><text x="579.5625" style="color:#666666;cursor:default;font-size:11px;fill:#666666;width:121px;text-overflow:clip;" text-anchor="middle" transform="translate(0,0)" y="356" opacity="1"><tspan>100</tspan></text></g><g class="highcharts-axis-labels highcharts-yaxis-labels "><text x="52" style="color:#666666;cursor:default;font-size:11px;fill:#666666;width:188px;text-overflow:clip;" text-anchor="end" transform="translate(0,0)" y="340" opacity="1"><tspan>0</tspan></text><text x="52" style="color:#666666;cursor:default;font-size:11px;fill:#666666;width:188px;text-overflow:clip;" text-anchor="end" transform="translate(0,0)" y="283" opacity="1"><tspan>10</tspan></text><text x="52" style="color:#666666;cursor:default;font-size:11px;fill:#666666;width:188px;text-overflow:clip;" text-anchor="end" transform="translate(0,0)" y="226" opacity="1"><tspan>20</tspan></text><text x="52" style="color:#666666;cursor:default;font-size:11px;fill:#666666;width:188px;text-overflow:clip;" text-anchor="end" transform="translate(0,0)" y="169" opacity="1"><tspan>30</tspan></text><text x="52" style="color:#666666;cursor:default;font-size:11px;fill:#666666;width:188px;text-overflow:clip;" text-anchor="end" transform="translate(0,0)" y="112" opacity="1"><tspan>40</tspan></text><text x="52" style="color:#666666;cursor:default;font-size:11px;fill:#666666;width:188px;text-overflow:clip;" text-anchor="end" transform="translate(0,0)" y="56" opacity="1"><tspan>50</tspan></text></g><text x="590" class="highcharts-credits" text-anchor="end" style="cursor:pointer;color:#999999;font-size:9px;fill:#999999;" y="395"><tspan>Created with MultiQC</tspan></text></svg>