<svg xmlns:xlink="http://www.w3.org/1999/xlink" version="1.1" class="highcharts-root" style="font-family:&quot;lucida grande&quot;, &quot;lucida sans unicode&quot;, arial, helvetica, sans-serif;font-size:12px;" xmlns="http://www.w3.org/2000/svg" width="600" height="500"><desc>Created with Highcharts 5.0.6</desc><defs><clipPath id="highcharts-zrmuae6-95"><rect x="0" y="0" width="323" height="405" fill="none"></rect></clipPath></defs><rect fill="#ffffff" class="highcharts-background" x="0" y="0" width="600" height="500" rx="0" ry="0"></rect><rect fill="none" class="highcharts-plot-background" x="185" y="53" width="405" height="323"></rect><g class="highcharts-grid highcharts-xaxis-grid "><path fill="none" class="highcharts-grid-line" d="M 185 80.5 L 590 80.5" opacity="1"></path><path fill="none" class="highcharts-grid-line" d="M 185 107.5 L 590 107.5" opacity="1"></path><path fill="none" class="highcharts-grid-line" d="M 185 134.5 L 590 134.5" opacity="1"></path><path fill="none" class="highcharts-grid-line" d="M 185 161.5 L 590 161.5" opacity="1"></path><path fill="none" class="highcharts-grid-line" d="M 185 188.5 L 590 188.5" opacity="1"></path><path fill="none" class="highcharts-grid-line" d="M 185 215.5 L 590 215.5" opacity="1"></path><path fill="none" class="highcharts-grid-line" d="M 185 241.5 L 590 241.5" opacity="1"></path><path fill="none" class="highcharts-grid-line" d="M 185 268.5 L 590 268.5" opacity="1"></path><path fill="none" class="highcharts-grid-line" d="M 185 295.5 L 590 295.5" opacity="1"></path><path fill="none" class="highcharts-grid-line" d="M 185 322.5 L 590 322.5" opacity="1"></path><path fill="none" class="highcharts-grid-line" d="M 185 349.5 L 590 349.5" opacity="1"></path><path fill="none" class="highcharts-grid-line" d="M 185 376.5 L 590 376.5" opacity="1"></path><path fill="none" class="highcharts-grid-line" d="M 185 53.5 L 590 53.5" opacity="1"></path></g><g class="highcharts-grid highcharts-yaxis-grid "><path fill="none" stroke="#e6e6e6" stroke-width="1" class="highcharts-grid-line" d="M 184.5 53 L 184.5 376" opacity="1"></path><path fill="none" stroke="#e6e6e6" stroke-width="1" class="highcharts-grid-line" d="M 235.5 53 L 235.5 376" opacity="1"></path><path fill="none" stroke="#e6e6e6" stroke-width="1" class="highcharts-grid-line" d="M 285.5 53 L 285.5 376" opacity="1"></path><path fill="none" stroke="#e6e6e6" stroke-width="1" class="highcharts-grid-line" d="M 336.5 53 L 336.5 376" opacity="1"></path><path fill="none" stroke="#e6e6e6" stroke-width="1" class="highcharts-grid-line" d="M 387.5 53 L 387.5 376" opacity="1"></path><path fill="none" stroke="#e6e6e6" stroke-width="1" class="highcharts-grid-line" d="M 437.5 53 L 437.5 376" opacity="1"></path><path fill="none" stroke="#e6e6e6" stroke-width="1" class="highcharts-grid-line" d="M 488.5 53 L 488.5 376" opacity="1"></path><path fill="none" stroke="#e6e6e6" stroke-width="1" class="highcharts-grid-line" d="M 538.5 53 L 538.5 376" opacity="1"></path><path fill="none" stroke="#e6e6e6" stroke-width="1" class="highcharts-grid-line" d="M 590.5 53 L 590.5 376" opacity="1"></path></g><rect fill="none" class="highcharts-plot-border" x="185" y="53" width="405" height="323"></rect><g class="highcharts-axis highcharts-xaxis "><path fill="none" class="highcharts-tick" stroke="#ccd6eb" stroke-width="1" d="M 185 80.5 L 175 80.5" opacity="1"></path><path fill="none" class="highcharts-tick" stroke="#ccd6eb" stroke-width="1" d="M 185 107.5 L 175 107.5" opacity="1"></path><path fill="none" class="highcharts-tick" stroke="#ccd6eb" stroke-width="1" d="M 185 134.5 L 175 134.5" opacity="1"></path><path fill="none" class="highcharts-tick" stroke="#ccd6eb" stroke-width="1" d="M 185 161.5 L 175 161.5" opacity="1"></path><path fill="none" class="highcharts-tick" stroke="#ccd6eb" stroke-width="1" d="M 185 188.5 L 175 188.5" opacity="1"></path><path fill="none" class="highcharts-tick" stroke="#ccd6eb" stroke-width="1" d="M 185 215.5 L 175 215.5" opacity="1"></path><path fill="none" class="highcharts-tick" stroke="#ccd6eb" stroke-width="1" d="M 185 241.5 L 175 241.5" opacity="1"></path><path fill="none" class="highcharts-tick" stroke="#ccd6eb" stroke-width="1" d="M 185 268.5 L 175 268.5" opacity="1"></path><path fill="none" class="highcharts-tick" stroke="#ccd6eb" stroke-width="1" d="M 185 295.5 L 175 295.5" opacity="1"></path><path fill="none" class="highcharts-tick" stroke="#ccd6eb" stroke-width="1" d="M 185 322.5 L 175 322.5" opacity="1"></path><path fill="none" class="highcharts-tick" stroke="#ccd6eb" stroke-width="1" d="M 185 349.5 L 175 349.5" opacity="1"></path><path fill="none" class="highcharts-tick" stroke="#ccd6eb" stroke-width="1" d="M 185 376.5 L 175 376.5" opacity="1"></path><path fill="none" class="highcharts-tick" stroke="#ccd6eb" stroke-width="1" d="M 185 52.5 L 175 52.5" opacity="1"></path><path fill="none" class="highcharts-axis-line" stroke="#ccd6eb" stroke-width="1" d="M 184.5 53 L 184.5 376"></path></g><g class="highcharts-axis highcharts-yaxis "><text x="387.5" text-anchor="middle" transform="translate(0,0)" class="highcharts-axis-title" style="color:#666666;fill:#666666;" y="418"><tspan># Reads</tspan></text><path fill="none" class="highcharts-axis-line" d="M 185 376 L 590 376"></path></g><g class="highcharts-series-group"><g class="highcharts-series highcharts-series-0 highcharts-bar-series highcharts-color-undefined " transform="translate(590,376) rotate(90) scale(-1,1) scale(1 1)" width="405" height="323" clip-path="url(#highcharts-zrmuae6-95)"><rect x="299" y="92" width="21" height="314" fill="#437bb1" class="highcharts-point"></rect><rect x="272" y="99" width="21" height="307" fill="#437bb1" class="highcharts-point"></rect><rect x="245" y="86" width="21" height="320" fill="#437bb1" class="highcharts-point"></rect><rect x="218" y="76" width="21" height="330" fill="#437bb1" class="highcharts-point"></rect><rect x="192" y="76" width="21" height="330" fill="#437bb1" class="highcharts-point"></rect><rect x="165" y="172" width="21" height="234" fill="#437bb1" class="highcharts-point"></rect><rect x="138" y="66" width="21" height="340" fill="#437bb1" class="highcharts-point"></rect><rect x="111" y="63" width="21" height="343" fill="#437bb1" class="highcharts-point"></rect><rect x="84" y="102" width="21" height="304" fill="#437bb1" class="highcharts-point"></rect><rect x="57" y="92" width="21" height="314" fill="#437bb1" class="highcharts-point"></rect><rect x="30" y="155" width="21" height="251" fill="#437bb1" class="highcharts-point"></rect><rect x="3" y="163" width="21" height="243" fill="#437bb1" class="highcharts-point"></rect></g><g class="highcharts-markers highcharts-series-0 highcharts-bar-series highcharts-color-undefined " transform="translate(590,376) rotate(90) scale(-1,1) scale(1 1)" width="405" height="323" clip-path="none"></g><g class="highcharts-series highcharts-series-1 highcharts-bar-series highcharts-color-undefined " transform="translate(590,376) rotate(90) scale(-1,1) scale(1 1)" width="405" height="323" clip-path="url(#highcharts-zrmuae6-95)"><rect x="299" y="81" width="21" height="11" fill="#e63491" class="highcharts-point"></rect><rect x="272" y="68" width="21" height="31" fill="#e63491" class="highcharts-point"></rect><rect x="245" y="55" width="21" height="31" fill="#e63491" class="highcharts-point"></rect><rect x="218" y="50" width="21" height="26" fill="#e63491" class="highcharts-point"></rect><rect x="192" y="48" width="21" height="28" fill="#e63491" class="highcharts-point"></rect><rect x="165" y="134" width="21" height="38" fill="#e63491" class="highcharts-point"></rect><rect x="138" y="44" width="21" height="22" fill="#e63491" class="highcharts-point"></rect><rect x="111" y="43" width="21" height="20" fill="#e63491" class="highcharts-point"></rect><rect x="84" y="71" width="21" height="31" fill="#e63491" class="highcharts-point"></rect><rect x="57" y="59" width="21" height="33" fill="#e63491" class="highcharts-point"></rect><rect x="30" y="120" width="21" height="35" fill="#e63491" class="highcharts-point"></rect><rect x="3" y="152" width="21" height="11" fill="#e63491" class="highcharts-point"></rect></g><g class="highcharts-markers highcharts-series-1 highcharts-bar-series highcharts-color-undefined " transform="translate(590,376) rotate(90) scale(-1,1) scale(1 1)" width="405" height="323" clip-path="none"></g><g class="highcharts-series highcharts-series-2 highcharts-bar-series highcharts-color-undefined " transform="translate(590,376) rotate(90) scale(-1,1) scale(1 1)" width="405" height="323" clip-path="url(#highcharts-zrmuae6-95)"><rect x="299" y="42" width="21" height="39" fill="#b1084c" class="highcharts-point"></rect><rect x="272" y="59" width="21" height="9" fill="#b1084c" class="highcharts-point"></rect><rect x="245" y="45" width="21" height="10" fill="#b1084c" class="highcharts-point"></rect><rect x="218" y="42" width="21" height="8" fill="#b1084c" class="highcharts-point"></rect><rect x="192" y="40" width="21" height="8" fill="#b1084c" class="highcharts-point"></rect><rect x="165" y="124" width="21" height="10" fill="#b1084c" class="highcharts-point"></rect><rect x="138" y="38" width="21" height="6" fill="#b1084c" class="highcharts-point"></rect><rect x="111" y="37" width="21" height="6" fill="#b1084c" class="highcharts-point"></rect><rect x="84" y="63" width="21" height="8" fill="#b1084c" class="highcharts-point"></rect><rect x="57" y="49" width="21" height="10" fill="#b1084c" class="highcharts-point"></rect><rect x="30" y="111" width="21" height="9" fill="#b1084c" class="highcharts-point"></rect><rect x="3" y="108" width="21" height="44" fill="#b1084c" class="highcharts-point"></rect></g><g class="highcharts-markers highcharts-series-2 highcharts-bar-series highcharts-color-undefined " transform="translate(590,376) rotate(90) scale(-1,1) scale(1 1)" width="405" height="323" clip-path="none"></g><g class="highcharts-series highcharts-series-3 highcharts-bar-series highcharts-color-undefined " transform="translate(590,376) rotate(90) scale(-1,1) scale(1 1)" width="405" height="323" clip-path="url(#highcharts-zrmuae6-95)"><rect x="299" y="26" width="21" height="16" fill="#7f0000" class="highcharts-point"></rect><rect x="272" y="26" width="21" height="33" fill="#7f0000" class="highcharts-point"></rect><rect x="245" y="26" width="21" height="19" fill="#7f0000" class="highcharts-point"></rect><rect x="218" y="26" width="21" height="16" fill="#7f0000" class="highcharts-point"></rect><rect x="192" y="26" width="21" height="14" fill="#7f0000" class="highcharts-point"></rect><rect x="165" y="26" width="21" height="98" fill="#7f0000" class="highcharts-point"></rect><rect x="138" y="26" width="21" height="12" fill="#7f0000" class="highcharts-point"></rect><rect x="111" y="26" width="21" height="11" fill="#7f0000" class="highcharts-point"></rect><rect x="84" y="26" width="21" height="37" fill="#7f0000" class="highcharts-point"></rect><rect x="57" y="26" width="21" height="23" fill="#7f0000" class="highcharts-point"></rect><rect x="30" y="26" width="21" height="85" fill="#7f0000" class="highcharts-point"></rect><rect x="3" y="26" width="21" height="82" fill="#7f0000" class="highcharts-point"></rect></g><g class="highcharts-markers highcharts-series-3 highcharts-bar-series highcharts-color-undefined " transform="translate(590,376) rotate(90) scale(-1,1) scale(1 1)" width="405" height="323" clip-path="none"></g></g><text x="300" text-anchor="middle" class="highcharts-title" style="color:#333333;font-size:18px;fill:#333333;width:536px;" y="24"><tspan>Trimmomatic: Surviving Reads</tspan></text><g class="highcharts-legend" transform="translate(55,436)"><rect fill="none" class="highcharts-legend-box" rx="0" ry="0" x="0" y="0" width="489" height="49" visibility="visible"></rect><g><g><g class="highcharts-legend-item highcharts-bar-series highcharts-color-undefined highcharts-series-0" transform="translate(8,3)"><text x="21" style="color:#333333;font-size:12px;font-weight:bold;cursor:pointer;fill:#333333;" text-anchor="start" y="15"><tspan>Surviving Reads</tspan></text><rect x="2" y="4" width="12" height="12" fill="#437bb1" rx="6" ry="6" class="highcharts-point"></rect></g><g class="highcharts-legend-item highcharts-bar-series highcharts-color-undefined highcharts-series-1" transform="translate(143.84375,3)"><text x="21" y="15" style="color:#333333;font-size:12px;font-weight:bold;cursor:pointer;fill:#333333;" text-anchor="start"><tspan>Forward Only Surviving</tspan></text><rect x="2" y="4" width="12" height="12" fill="#e63491" rx="6" ry="6" class="highcharts-point"></rect></g><g class="highcharts-legend-item highcharts-bar-series highcharts-color-undefined highcharts-series-2" transform="translate(323.921875,3)"><text x="21" y="15" style="color:#333333;font-size:12px;font-weight:bold;cursor:pointer;fill:#333333;" text-anchor="start"><tspan>Reverse Only Surviving</tspan></text><rect x="2" y="4" width="12" height="12" fill="#b1084c" rx="6" ry="6" class="highcharts-point"></rect></g><g class="highcharts-legend-item highcharts-bar-series highcharts-color-undefined highcharts-series-3" transform="translate(8,22)"><text x="21" y="15" style="color:#333333;font-size:12px;font-weight:bold;cursor:pointer;fill:#333333;" text-anchor="start">Dropped</text><rect x="2" y="4" width="12" height="12" fill="#7f0000" rx="6" ry="6" class="highcharts-point"></rect></g></g></g></g><g class="highcharts-axis-labels highcharts-xaxis-labels "><text x="170" style="color:#666666;cursor:default;font-size:11px;fill:#666666;width:188px;text-overflow:clip;" text-anchor="end" transform="translate(0,0)" y="69" opacity="1"><tspan>decompressed_3LT_az_C5_1</tspan></text><text x="170" style="color:#666666;cursor:default;font-size:11px;fill:#666666;width:188px;text-overflow:clip;" text-anchor="end" transform="translate(0,0)" y="96" opacity="1"><tspan>decompressed_KgDKbZ_C4_1</tspan></text><text x="170" style="color:#666666;cursor:default;font-size:11px;fill:#666666;width:188px;text-overflow:clip;" text-anchor="end" transform="translate(0,0)" y="123" opacity="1"><tspan>decompressed_Nwuq78_N5_1</tspan></text><text x="170" style="color:#666666;cursor:default;font-size:11px;fill:#666666;width:188px;text-overflow:clip;" text-anchor="end" transform="translate(0,0)" y="150" opacity="1"><tspan>decompressed_UyUuRj_C1_1</tspan></text><text x="170" style="color:#666666;cursor:default;font-size:11px;fill:#666666;width:188px;text-overflow:clip;" text-anchor="end" transform="translate(0,0)" y="177" opacity="1"><tspan>decompressed_VslEo2_C6_1</tspan></text><text x="170" style="color:#666666;cursor:default;font-size:11px;fill:#666666;width:188px;text-overflow:clip;" text-anchor="end" transform="translate(0,0)" y="204" opacity="1"><tspan>decompressed_dcIWWc_N2_1</tspan></text><text x="170" style="color:#666666;cursor:default;font-size:11px;fill:#666666;width:188px;text-overflow:clip;" text-anchor="end" transform="translate(0,0)" y="230" opacity="1"><tspan>decompressed_ekek2P_N6_1</tspan></text><text x="170" style="color:#666666;cursor:default;font-size:11px;fill:#666666;width:188px;text-overflow:clip;" text-anchor="end" transform="translate(0,0)" y="257" opacity="1"><tspan>decompressed_fkzJDd_N4_1</tspan></text><text x="170" style="color:#666666;cursor:default;font-size:11px;fill:#666666;width:188px;text-overflow:clip;" text-anchor="end" transform="translate(0,0)" y="284" opacity="1"><tspan>decompressed_oCFQST_N1_1</tspan></text><text x="170" style="color:#666666;cursor:default;font-size:11px;fill:#666666;width:188px;text-overflow:clip;" text-anchor="end" transform="translate(0,0)" y="311" opacity="1"><tspan>decompressed_pXlTUO_N3_1</tspan></text><text x="170" style="color:#666666;cursor:default;font-size:11px;fill:#666666;width:188px;text-overflow:clip;" text-anchor="end" transform="translate(0,0)" y="338" opacity="1"><tspan>decompressed_tx4J0T_C3_1</tspan></text><text x="170" style="color:#666666;cursor:default;font-size:11px;fill:#666666;width:188px;text-overflow:clip;" text-anchor="end" transform="translate(0,0)" y="365" opacity="1"><tspan>decompressed_uwtl85_C2_1</tspan></text></g><g class="highcharts-axis-labels highcharts-yaxis-labels "><text x="185" style="color:#666666;cursor:default;font-size:11px;fill:#666666;" text-anchor="middle" transform="translate(0,0)" y="395" opacity="1">0</text><text x="235.625" style="color:#666666;cursor:default;font-size:11px;fill:#666666;" text-anchor="middle" transform="translate(0,0)" y="395" opacity="1">10k</text><text x="286.25" style="color:#666666;cursor:default;font-size:11px;fill:#666666;" text-anchor="middle" transform="translate(0,0)" y="395" opacity="1">20k</text><text x="336.875" style="color:#666666;cursor:default;font-size:11px;fill:#666666;" text-anchor="middle" transform="translate(0,0)" y="395" opacity="1">30k</text><text x="387.5" style="color:#666666;cursor:default;font-size:11px;fill:#666666;" text-anchor="middle" transform="translate(0,0)" y="395" opacity="1">40k</text><text x="438.125" style="color:#666666;cursor:default;font-size:11px;fill:#666666;" text-anchor="middle" transform="translate(0,0)" y="395" opacity="1">50k</text><text x="488.75" style="color:#666666;cursor:default;font-size:11px;fill:#666666;" text-anchor="middle" transform="translate(0,0)" y="395" opacity="1">60k</text><text x="539.375" style="color:#666666;cursor:default;font-size:11px;fill:#666666;" text-anchor="middle" transform="translate(0,0)" y="395" opacity="1">70k</text><text x="579.7890625" style="color:#666666;cursor:default;font-size:11px;fill:#666666;" text-anchor="middle" transform="translate(0,0)" y="395" opacity="1">80k</text></g><text x="590" class="highcharts-credits" text-anchor="end" style="cursor:pointer;color:#999999;font-size:9px;fill:#999999;" y="495"><tspan>Created with MultiQC</tspan></text></svg>